<svg width="589" height="803" viewBox="0 0 589 803" fill="none" xmlns="http://www.w3.org/2000/svg">
<g clip-path="url(#clip0_1_30)">
<rect x="97" y="446" width="69" height="306" fill="white"/>
<rect x="208" y="376" width="69" height="376" fill="white"/>
<rect x="319" y="311" width="69" height="441" fill="white"/>
<rect x="430" y="262" width="69" height="490" fill="white"/>
<rect x="28" y="725" width="27" height="27" fill="white"/>
<line x1="29" y1="696" x2="29" y2="41" stroke="white" stroke-width="2"/>
<line x1="30" y1="445" x2="217" y2="445" stroke="white" stroke-width="2"/>
<line x1="30" y1="377" x2="339" y2="377" stroke="white" stroke-width="2"/>
<line x1="30" y1="312" x2="448" y2="312" stroke="white" stroke-width="2"/>
<line x1="29" y1="263" x2="499" y2="263" stroke="white" stroke-width="2"/>
<line x1="42" y1="751" x2="581" y2="751" stroke="white" stroke-width="2"/>
<path d="M20.17 70.894C20.17 71.8007 20.0227 72.645 19.728 73.427C19.422 74.1977 18.997 74.872 18.453 75.45C17.8977 76.0167 17.246 76.4587 16.498 76.776C15.75 77.0933 14.934 77.252 14.05 77.252C13.166 77.252 12.35 77.0933 11.602 76.776C10.854 76.4587 10.208 76.011 9.664 75.433C9.10867 74.855 8.68367 74.1807 8.389 73.41C8.083 72.6393 7.93 71.795 7.93 70.877C7.93 69.9023 8.1 69.0127 8.44 68.208C8.76867 67.4033 9.26167 66.7233 9.919 66.168L11.262 67.596C10.7973 68.0267 10.4517 68.5083 10.225 69.041C9.987 69.5737 9.868 70.1517 9.868 70.775C9.868 71.3983 9.97 71.9707 10.174 72.492C10.378 73.002 10.667 73.4497 11.041 73.835C11.415 74.209 11.857 74.5037 12.367 74.719C12.877 74.923 13.438 75.025 14.05 75.025C14.662 75.025 15.223 74.923 15.733 74.719C16.243 74.5037 16.685 74.209 17.059 73.835C17.433 73.4497 17.722 73.002 17.926 72.492C18.13 71.9707 18.232 71.3983 18.232 70.775C18.232 70.1517 18.1187 69.5737 17.892 69.041C17.654 68.5083 17.297 68.0267 16.821 67.596L18.181 66.168C18.827 66.7233 19.32 67.4033 19.66 68.208C20 69.0127 20.17 69.908 20.17 70.894ZM20 60.6144L8.1 65.8164L8.1 63.4194L18.861 58.7784L18.861 60.1554L8.1 55.4634L8.1 53.2534L20 58.4384L20 60.6144ZM20.17 46.6225C20.17 47.5292 20.0227 48.3735 19.728 49.1555C19.422 49.9262 18.997 50.6005 18.453 51.1785C17.8977 51.7452 17.246 52.1872 16.498 52.5045C15.75 52.8219 14.934 52.9805 14.05 52.9805C13.166 52.9805 12.35 52.8219 11.602 52.5045C10.854 52.1872 10.208 51.7395 9.664 51.1615C9.10867 50.5835 8.68367 49.9092 8.389 49.1385C8.083 48.3678 7.93 47.5235 7.93 46.6055C7.93 45.6308 8.1 44.7412 8.44 43.9365C8.76867 43.1318 9.26167 42.4518 9.919 41.8965L11.262 43.3245C10.7973 43.7552 10.4517 44.2368 10.225 44.7695C9.987 45.3022 9.868 45.8802 9.868 46.5035C9.868 47.1268 9.97 47.6992 10.174 48.2205C10.378 48.7305 10.667 49.1782 11.041 49.5635C11.415 49.9375 11.857 50.2322 12.367 50.4475C12.877 50.6515 13.438 50.7535 14.05 50.7535C14.662 50.7535 15.223 50.6515 15.733 50.4475C16.243 50.2322 16.685 49.9375 17.059 49.5635C17.433 49.1782 17.722 48.7305 17.926 48.2205C18.13 47.6992 18.232 47.1269 18.232 46.5035C18.232 45.8802 18.1187 45.3022 17.892 44.7695C17.654 44.2369 17.297 43.7552 16.821 43.3245L18.181 41.8965C18.827 42.4519 19.32 43.1319 19.66 43.9365C20 44.7412 20.17 45.6365 20.17 46.6225Z" fill="white"/>
<path d="M14.088 184.402C14.088 184.989 13.9927 185.531 13.802 186.03C13.604 186.521 13.329 186.95 12.977 187.317C12.6177 187.676 12.1997 187.959 11.723 188.164C11.2463 188.369 10.722 188.472 10.15 188.472C9.578 188.472 9.05367 188.369 8.577 188.164C8.10033 187.959 7.686 187.673 7.334 187.306C6.97467 186.939 6.69967 186.51 6.509 186.019C6.311 185.52 6.212 184.978 6.212 184.391C6.212 183.797 6.31467 183.251 6.52 182.752C6.718 182.246 7.015 181.817 7.411 181.465L8.104 182.18C7.796 182.473 7.56867 182.803 7.422 183.17C7.268 183.537 7.191 183.929 7.191 184.347C7.191 184.78 7.26433 185.183 7.411 185.557C7.55767 185.924 7.763 186.243 8.027 186.514C8.291 186.785 8.60633 186.998 8.973 187.152C9.33233 187.299 9.72467 187.372 10.15 187.372C10.5753 187.372 10.9713 187.299 11.338 187.152C11.6973 186.998 12.009 186.785 12.273 186.514C12.537 186.243 12.7423 185.924 12.889 185.557C13.0357 185.183 13.109 184.78 13.109 184.347C13.109 183.929 13.0357 183.537 12.889 183.17C12.735 182.803 12.5003 182.473 12.185 182.18L12.878 181.465C13.274 181.817 13.5747 182.246 13.78 182.752C13.9853 183.251 14.088 183.801 14.088 184.402ZM14 178.166L11.052 178.166L11.734 177.913L6.3 181.224L6.3 180.047L10.887 177.264L10.887 177.902L6.3 175.108L6.3 174.019L11.734 177.319L11.052 177.077L14 177.077L14 178.166ZM14 171.46L7.257 171.46L7.257 174.1L6.3 174.1L6.3 167.731L7.257 167.731L7.257 170.371L14 170.371L14 171.46ZM9.622 165.532L9.622 161.572L10.557 161.572L10.557 165.532L9.622 165.532ZM13.043 165.433L13.043 160.945L14 160.945L14 166.533L6.3 166.533L6.3 161.098L7.257 161.099L7.257 165.433L13.043 165.433ZM14 159.163L6.3 159.163L6.3 156.16C6.3 155.486 6.40634 154.91 6.619 154.433C6.83167 153.957 7.13967 153.59 7.543 153.333C7.94634 153.077 8.42667 152.948 8.984 152.948C9.54134 152.948 10.0217 153.077 10.425 153.333C10.821 153.59 11.129 153.957 11.349 154.433C11.5617 154.91 11.668 155.486 11.668 156.16L11.668 158.558L11.151 158.063L14 158.063L14 159.163ZM11.261 158.063L10.711 158.558L10.711 156.193C10.711 155.489 10.5607 154.958 10.26 154.598C9.95934 154.232 9.534 154.048 8.984 154.048C8.434 154.048 8.00867 154.232 7.708 154.598C7.40734 154.958 7.257 155.489 7.257 156.193L7.257 158.558L6.707 158.063L11.261 158.063ZM6.30001 145.81L6.30001 144.71L14 144.71L14 145.81L6.30001 145.81ZM14 150.232L14 151.332L6.3 151.332L6.3 150.232L14 150.232ZM10.568 145.711L10.568 150.342L9.611 150.342L9.61101 145.711L10.568 145.711ZM14 143.572L6.30001 140.085L6.30001 138.996L14 135.498L14 136.653L6.91601 139.766L6.91601 139.326L14 142.439L14 143.572ZM12.075 142.087L11.195 141.79L11.195 137.456L12.075 137.137L12.075 142.087ZM14 134.349L6.30001 134.349L6.30001 131.346C6.30001 130.671 6.40634 130.096 6.61901 129.619C6.83167 129.142 7.13967 128.776 7.54301 128.519C7.94634 128.262 8.42667 128.134 8.98401 128.134C9.54134 128.134 10.0217 128.262 10.425 128.519C10.821 128.776 11.1253 129.142 11.338 129.619C11.5507 130.096 11.657 130.671 11.657 131.346L11.657 133.744L11.151 133.249L14 133.249L14 134.349ZM14 129.201L11.206 131.159L11.206 129.982L14 128.002L14 129.201ZM11.261 133.249L10.722 133.744L10.722 131.379C10.722 130.675 10.5717 130.143 10.271 129.784C9.96301 129.417 9.53401 129.234 8.98401 129.234C8.43401 129.234 8.00867 129.417 7.70801 129.784C7.40734 130.143 7.25701 130.675 7.25701 131.379L7.25701 133.744L6.70701 133.249L11.261 133.249ZM14 126.357L6.30001 126.357L6.30001 125.257L14 125.257L14 126.357ZM14 124.117L6.30001 120.63L6.30001 119.541L14 116.043L14 117.198L6.91601 120.311L6.91601 119.871L14 122.984L14 124.117ZM12.075 122.632L11.195 122.335L11.195 118.001L12.075 117.682L12.075 122.632Z" fill="white"/>
<path d="M14.088 337.655C14.088 338.667 13.7983 339.463 13.219 340.042C12.6397 340.621 11.7927 340.911 10.678 340.911L6.3 340.911L6.3 339.811L10.634 339.811C11.492 339.811 12.119 339.624 12.515 339.25C12.911 338.869 13.109 338.333 13.109 337.644C13.109 336.947 12.911 336.412 12.515 336.038C12.119 335.657 11.492 335.466 10.634 335.466L6.3 335.466L6.3 334.399L10.678 334.399C11.7927 334.399 12.6397 334.689 13.219 335.268C13.7983 335.84 14.088 336.636 14.088 337.655ZM14.088 329.9C14.088 330.486 14 331.047 13.824 331.583C13.6407 332.118 13.406 332.54 13.12 332.848L12.262 332.441C12.5187 332.147 12.7313 331.773 12.9 331.319C13.0687 330.864 13.153 330.391 13.153 329.9C13.153 329.452 13.1017 329.089 12.999 328.811C12.8963 328.532 12.757 328.327 12.581 328.195C12.3977 328.063 12.1923 327.997 11.965 327.997C11.701 327.997 11.4883 328.085 11.327 328.261C11.1657 328.429 11.0373 328.653 10.942 328.932C10.8393 329.203 10.7513 329.504 10.678 329.834C10.6047 330.164 10.5203 330.497 10.425 330.835C10.3223 331.165 10.194 331.469 10.04 331.748C9.886 332.019 9.68067 332.239 9.424 332.408C9.16 332.576 8.82267 332.661 8.412 332.661C8.016 332.661 7.653 332.558 7.323 332.353C6.98567 332.14 6.718 331.817 6.52 331.385C6.31467 330.945 6.212 330.387 6.212 329.713C6.212 329.265 6.27067 328.822 6.388 328.382C6.50533 327.942 6.674 327.56 6.894 327.238L7.774 327.601C7.554 327.931 7.39633 328.279 7.301 328.646C7.19833 329.012 7.147 329.368 7.147 329.713C7.147 330.145 7.202 330.501 7.312 330.78C7.422 331.058 7.56867 331.264 7.752 331.396C7.93533 331.52 8.14067 331.583 8.368 331.583C8.63933 331.583 8.85567 331.498 9.017 331.33C9.17833 331.154 9.30667 330.93 9.402 330.659C9.49733 330.38 9.58533 330.076 9.666 329.746C9.73933 329.416 9.82367 329.086 9.919 328.756C10.0143 328.418 10.139 328.114 10.293 327.843C10.447 327.564 10.6523 327.34 10.909 327.172C11.1657 327.003 11.4957 326.919 11.899 326.919C12.2877 326.919 12.6507 327.025 12.988 327.238C13.318 327.45 13.5857 327.78 13.791 328.228C13.989 328.668 14.088 329.225 14.088 329.9ZM9.622 324.311L9.622 320.351L10.557 320.351L10.557 324.311L9.622 324.311ZM13.043 324.212L13.043 319.724L14 319.724L14 325.312L6.3 325.312L6.3 319.878L7.257 319.878L7.257 324.212L13.043 324.212ZM14 317.943L6.3 317.943L6.3 314.94C6.3 314.265 6.40634 313.689 6.619 313.213C6.83167 312.736 7.13967 312.369 7.543 312.113C7.94634 311.856 8.42667 311.728 8.984 311.728C9.54134 311.728 10.0217 311.856 10.425 312.113C10.821 312.369 11.1253 312.736 11.338 313.213C11.5507 313.689 11.657 314.265 11.657 314.94L11.657 317.338L11.151 316.843L14 316.843L14 317.943ZM14 312.795L11.206 314.753L11.206 313.576L14 311.596L14 312.795ZM11.261 316.843L10.722 317.338L10.722 314.973C10.722 314.269 10.5717 313.737 10.271 313.378C9.963 313.011 9.534 312.828 8.984 312.828C8.434 312.828 8.00867 313.011 7.708 313.378C7.40734 313.737 7.257 314.269 7.257 314.973L7.257 317.338L6.707 316.843L11.261 316.843Z" fill="white"/>
<path d="M14 275.845L6.3 275.845L6.3 274.943L12.625 269.85L12.625 270.323L6.3 270.323L6.3 269.223L14 269.223L14 270.125L7.675 275.218L7.675 274.745L14 274.745L14 275.845ZM14 268.084L6.3 264.597L6.3 263.508L14 260.01L14 261.165L6.916 264.278L6.916 263.838L14 266.951L14 268.084ZM12.075 266.599L11.195 266.302L11.195 261.968L12.075 261.649L12.075 266.599ZM14 258.862L6.3 258.862L6.3 257.96L12.119 254.506L12.119 254.99L6.3 251.58L6.3 250.678L14 250.667L14 251.723L7.961 251.734L7.961 251.481L13.065 254.517L13.065 255.023L7.961 258.081L7.961 257.806L14 257.806L14 258.862ZM9.622 247.355L9.622 243.395L10.557 243.395L10.557 247.355L9.622 247.355ZM13.043 247.256L13.043 242.768L14 242.768L14 248.356L6.3 248.356L6.3 242.922L7.257 242.922L7.257 247.256L13.043 247.256Z" fill="white"/>
<rect x="14" y="306" width="8" height="24" transform="rotate(-180 14 306)" fill="white"/>
<rect x="581" y="764" width="8" height="8" transform="rotate(-180 581 764)" fill="white"/>
<path d="M541.345 764.088C540.333 764.088 539.537 763.798 538.958 763.219C538.379 762.64 538.089 761.793 538.089 760.678V756.3H539.189V760.634C539.189 761.492 539.376 762.119 539.75 762.515C540.131 762.911 540.667 763.109 541.356 763.109C542.053 763.109 542.588 762.911 542.962 762.515C543.343 762.119 543.534 761.492 543.534 760.634V756.3H544.601V760.678C544.601 761.793 544.311 762.64 543.732 763.219C543.16 763.798 542.364 764.088 541.345 764.088ZM549.1 764.088C548.514 764.088 547.953 764 547.417 763.824C546.882 763.641 546.46 763.406 546.152 763.12L546.559 762.262C546.853 762.519 547.227 762.731 547.681 762.9C548.136 763.069 548.609 763.153 549.1 763.153C549.548 763.153 549.911 763.102 550.189 762.999C550.468 762.896 550.673 762.757 550.805 762.581C550.937 762.398 551.003 762.192 551.003 761.965C551.003 761.701 550.915 761.488 550.739 761.327C550.571 761.166 550.347 761.037 550.068 760.942C549.797 760.839 549.496 760.751 549.166 760.678C548.836 760.605 548.503 760.52 548.165 760.425C547.835 760.322 547.531 760.194 547.252 760.04C546.981 759.886 546.761 759.681 546.592 759.424C546.424 759.16 546.339 758.823 546.339 758.412C546.339 758.016 546.442 757.653 546.647 757.323C546.86 756.986 547.183 756.718 547.615 756.52C548.055 756.315 548.613 756.212 549.287 756.212C549.735 756.212 550.178 756.271 550.618 756.388C551.058 756.505 551.44 756.674 551.762 756.894L551.399 757.774C551.069 757.554 550.721 757.396 550.354 757.301C549.988 757.198 549.632 757.147 549.287 757.147C548.855 757.147 548.499 757.202 548.22 757.312C547.942 757.422 547.736 757.569 547.604 757.752C547.48 757.935 547.417 758.141 547.417 758.368C547.417 758.639 547.502 758.856 547.67 759.017C547.846 759.178 548.07 759.307 548.341 759.402C548.62 759.497 548.924 759.585 549.254 759.666C549.584 759.739 549.914 759.824 550.244 759.919C550.582 760.014 550.886 760.139 551.157 760.293C551.436 760.447 551.66 760.652 551.828 760.909C551.997 761.166 552.081 761.496 552.081 761.899C552.081 762.288 551.975 762.651 551.762 762.988C551.55 763.318 551.22 763.586 550.772 763.791C550.332 763.989 549.775 764.088 549.1 764.088ZM554.689 759.622H558.649V760.557H554.689V759.622ZM554.788 763.043H559.276V764H553.688V756.3H559.122V757.257H554.788V763.043ZM561.057 764V756.3H564.06C564.735 756.3 565.311 756.406 565.787 756.619C566.264 756.832 566.631 757.14 566.887 757.543C567.144 757.946 567.272 758.427 567.272 758.984C567.272 759.541 567.144 760.022 566.887 760.425C566.631 760.821 566.264 761.125 565.787 761.338C565.311 761.551 564.735 761.657 564.06 761.657H561.662L562.157 761.151V764H561.057ZM566.205 764L564.247 761.206H565.424L567.404 764H566.205ZM562.157 761.261L561.662 760.722H564.027C564.731 760.722 565.263 760.572 565.622 760.271C565.989 759.963 566.172 759.534 566.172 758.984C566.172 758.434 565.989 758.009 565.622 757.708C565.263 757.407 564.731 757.257 564.027 757.257H561.662L562.157 756.707V761.261Z" fill="white"/>
<path d="M122.553 781.132C122.033 781.132 121.552 781.037 121.112 780.846C120.68 780.648 120.324 780.369 120.045 780.01L121.035 778.822C121.248 779.101 121.472 779.313 121.706 779.46C121.941 779.599 122.194 779.669 122.465 779.669C123.191 779.669 123.554 779.244 123.554 778.393V774.73H120.848V773.3H125.325V778.294C125.325 779.247 125.091 779.959 124.621 780.428C124.152 780.897 123.463 781.132 122.553 781.132ZM129.901 781.088C129.227 781.088 128.633 780.956 128.119 780.692C127.613 780.428 127.221 780.069 126.942 779.614C126.664 779.152 126.524 778.628 126.524 778.041C126.524 777.447 126.66 776.923 126.931 776.468C127.21 776.006 127.588 775.647 128.064 775.39C128.541 775.126 129.08 774.994 129.681 774.994C130.261 774.994 130.781 775.119 131.243 775.368C131.713 775.61 132.083 775.962 132.354 776.424C132.626 776.879 132.761 777.425 132.761 778.063C132.761 778.129 132.758 778.206 132.75 778.294C132.743 778.375 132.736 778.452 132.728 778.525H127.921V777.524H131.826L131.166 777.821C131.166 777.513 131.104 777.245 130.979 777.018C130.855 776.791 130.682 776.615 130.462 776.49C130.242 776.358 129.986 776.292 129.692 776.292C129.399 776.292 129.139 776.358 128.911 776.49C128.691 776.615 128.519 776.794 128.394 777.029C128.27 777.256 128.207 777.528 128.207 777.843V778.107C128.207 778.43 128.277 778.716 128.416 778.965C128.563 779.207 128.765 779.394 129.021 779.526C129.285 779.651 129.593 779.713 129.945 779.713C130.261 779.713 130.536 779.665 130.77 779.57C131.012 779.475 131.232 779.332 131.43 779.141L132.343 780.131C132.072 780.439 131.731 780.677 131.32 780.846C130.91 781.007 130.437 781.088 129.901 781.088ZM136.401 781.088C135.909 781.088 135.469 780.993 135.081 780.802C134.699 780.611 134.402 780.322 134.19 779.933C133.977 779.537 133.871 779.035 133.871 778.426V775.082H135.587V778.173C135.587 778.664 135.689 779.027 135.895 779.262C136.107 779.489 136.404 779.603 136.786 779.603C137.05 779.603 137.284 779.548 137.49 779.438C137.695 779.321 137.856 779.145 137.974 778.91C138.091 778.668 138.15 778.367 138.15 778.008V775.082H139.866V781H138.238V779.372L138.535 779.845C138.337 780.256 138.043 780.567 137.655 780.78C137.273 780.985 136.855 781.088 136.401 781.088ZM97.3965 785.838L96.6705 788.478L96.4285 787.488C96.7439 787.488 97.0005 787.58 97.1985 787.763C97.3965 787.946 97.4955 788.199 97.4955 788.522C97.4955 788.837 97.3929 789.094 97.1875 789.292C96.9895 789.483 96.7402 789.578 96.4395 789.578C96.1315 789.578 95.8749 789.483 95.6695 789.292C95.4715 789.094 95.3725 788.837 95.3725 788.522C95.3725 788.427 95.3799 788.335 95.3945 788.247C95.4092 788.152 95.4385 788.042 95.4825 787.917C95.5265 787.792 95.5889 787.627 95.6695 787.422L96.3075 785.838H97.3965ZM99.9925 785.838L99.2665 788.478L99.0245 787.488C99.3399 787.488 99.5965 787.58 99.7945 787.763C99.9925 787.946 100.092 788.199 100.092 788.522C100.092 788.837 99.9889 789.094 99.7835 789.292C99.5855 789.483 99.3362 789.578 99.0355 789.578C98.7275 789.578 98.4709 789.483 98.2655 789.292C98.0675 789.094 97.9685 788.837 97.9685 788.522C97.9685 788.427 97.9759 788.335 97.9905 788.247C98.0052 788.152 98.0345 788.042 98.0785 787.917C98.1225 787.792 98.1849 787.627 98.2655 787.422L98.9035 785.838H99.9925ZM105.13 794.132C104.521 794.132 103.957 794.033 103.436 793.835C102.923 793.637 102.475 793.358 102.094 792.999C101.72 792.64 101.427 792.218 101.214 791.734C101.009 791.25 100.906 790.722 100.906 790.15C100.906 789.578 101.009 789.05 101.214 788.566C101.427 788.082 101.724 787.66 102.105 787.301C102.486 786.942 102.934 786.663 103.447 786.465C103.96 786.267 104.518 786.168 105.119 786.168C105.728 786.168 106.285 786.267 106.791 786.465C107.304 786.663 107.748 786.942 108.122 787.301C108.503 787.66 108.8 788.082 109.013 788.566C109.226 789.043 109.332 789.571 109.332 790.15C109.332 790.722 109.226 791.254 109.013 791.745C108.8 792.229 108.503 792.651 108.122 793.01C107.748 793.362 107.304 793.637 106.791 793.835C106.285 794.033 105.731 794.132 105.13 794.132ZM105.119 792.614C105.464 792.614 105.779 792.555 106.065 792.438C106.358 792.321 106.615 792.152 106.835 791.932C107.055 791.712 107.224 791.452 107.341 791.151C107.466 790.85 107.528 790.517 107.528 790.15C107.528 789.783 107.466 789.45 107.341 789.149C107.224 788.848 107.055 788.588 106.835 788.368C106.622 788.148 106.369 787.979 106.076 787.862C105.783 787.745 105.464 787.686 105.119 787.686C104.774 787.686 104.455 787.745 104.162 787.862C103.876 787.979 103.623 788.148 103.403 788.368C103.183 788.588 103.011 788.848 102.886 789.149C102.769 789.45 102.71 789.783 102.71 790.15C102.71 790.509 102.769 790.843 102.886 791.151C103.011 791.452 103.179 791.712 103.392 791.932C103.612 792.152 103.869 792.321 104.162 792.438C104.455 792.555 104.774 792.614 105.119 792.614ZM112.156 794L109.67 788.082H111.441L113.509 793.175H112.629L114.774 788.082H116.424L113.927 794H112.156ZM119.9 794.088C119.226 794.088 118.632 793.956 118.118 793.692C117.612 793.428 117.22 793.069 116.941 792.614C116.663 792.152 116.523 791.628 116.523 791.041C116.523 790.447 116.659 789.923 116.93 789.468C117.209 789.006 117.587 788.647 118.063 788.39C118.54 788.126 119.079 787.994 119.68 787.994C120.26 787.994 120.78 788.119 121.242 788.368C121.712 788.61 122.082 788.962 122.353 789.424C122.625 789.879 122.76 790.425 122.76 791.063C122.76 791.129 122.757 791.206 122.749 791.294C122.742 791.375 122.735 791.452 122.727 791.525H117.92V790.524H121.825L121.165 790.821C121.165 790.513 121.103 790.245 120.978 790.018C120.854 789.791 120.681 789.615 120.461 789.49C120.241 789.358 119.985 789.292 119.691 789.292C119.398 789.292 119.138 789.358 118.91 789.49C118.69 789.615 118.518 789.794 118.393 790.029C118.269 790.256 118.206 790.528 118.206 790.843V791.107C118.206 791.43 118.276 791.716 118.415 791.965C118.562 792.207 118.764 792.394 119.02 792.526C119.284 792.651 119.592 792.713 119.944 792.713C120.26 792.713 120.535 792.665 120.769 792.57C121.011 792.475 121.231 792.332 121.429 792.141L122.342 793.131C122.071 793.439 121.73 793.677 121.319 793.846C120.909 794.007 120.436 794.088 119.9 794.088ZM123.903 794V788.082H125.542V789.754L125.311 789.27C125.487 788.852 125.769 788.537 126.158 788.324C126.547 788.104 127.02 787.994 127.577 787.994V789.578C127.504 789.571 127.438 789.567 127.379 789.567C127.32 789.56 127.258 789.556 127.192 789.556C126.723 789.556 126.341 789.692 126.048 789.963C125.762 790.227 125.619 790.641 125.619 791.206V794H123.903ZM130.154 794L128.02 788.082H129.637L131.408 793.175H130.638L132.486 788.082H133.938L135.731 793.175H134.961L136.787 788.082H138.305L136.16 794H134.499L132.926 789.633H133.432L131.804 794H130.154ZM142.54 794V792.845L142.43 792.592V790.524C142.43 790.157 142.316 789.871 142.089 789.666C141.869 789.461 141.528 789.358 141.066 789.358C140.75 789.358 140.439 789.409 140.131 789.512C139.83 789.607 139.573 789.739 139.361 789.908L138.745 788.709C139.067 788.482 139.456 788.306 139.911 788.181C140.365 788.056 140.827 787.994 141.297 787.994C142.199 787.994 142.899 788.207 143.398 788.632C143.896 789.057 144.146 789.721 144.146 790.623V794H142.54ZM140.736 794.088C140.274 794.088 139.878 794.011 139.548 793.857C139.218 793.696 138.965 793.479 138.789 793.208C138.613 792.937 138.525 792.632 138.525 792.295C138.525 791.943 138.609 791.635 138.778 791.371C138.954 791.107 139.229 790.902 139.603 790.755C139.977 790.601 140.464 790.524 141.066 790.524H142.639V791.525H141.253C140.849 791.525 140.571 791.591 140.417 791.723C140.27 791.855 140.197 792.02 140.197 792.218C140.197 792.438 140.281 792.614 140.45 792.746C140.626 792.871 140.864 792.933 141.165 792.933C141.451 792.933 141.707 792.867 141.935 792.735C142.162 792.596 142.327 792.394 142.43 792.13L142.694 792.922C142.569 793.303 142.342 793.593 142.012 793.791C141.682 793.989 141.256 794.088 140.736 794.088ZM148.119 794.088C147.422 794.088 146.879 793.912 146.491 793.56C146.102 793.201 145.908 792.669 145.908 791.965V786.773H147.624V791.943C147.624 792.192 147.69 792.387 147.822 792.526C147.954 792.658 148.133 792.724 148.361 792.724C148.632 792.724 148.863 792.651 149.054 792.504L149.516 793.714C149.34 793.839 149.127 793.934 148.878 794C148.636 794.059 148.383 794.088 148.119 794.088ZM144.995 789.534V788.214H149.098V789.534H144.995ZM153.156 794.088C152.518 794.088 151.95 793.96 151.451 793.703C150.953 793.439 150.56 793.076 150.274 792.614C149.996 792.152 149.856 791.628 149.856 791.041C149.856 790.447 149.996 789.923 150.274 789.468C150.56 789.006 150.953 788.647 151.451 788.39C151.95 788.126 152.518 787.994 153.156 787.994C153.78 787.994 154.322 788.126 154.784 788.39C155.246 788.647 155.587 789.017 155.807 789.501L154.476 790.216C154.322 789.937 154.128 789.732 153.893 789.6C153.666 789.468 153.417 789.402 153.145 789.402C152.852 789.402 152.588 789.468 152.353 789.6C152.119 789.732 151.932 789.919 151.792 790.161C151.66 790.403 151.594 790.696 151.594 791.041C151.594 791.386 151.66 791.679 151.792 791.921C151.932 792.163 152.119 792.35 152.353 792.482C152.588 792.614 152.852 792.68 153.145 792.68C153.417 792.68 153.666 792.618 153.893 792.493C154.128 792.361 154.322 792.152 154.476 791.866L155.807 792.592C155.587 793.069 155.246 793.439 154.784 793.703C154.322 793.96 153.78 794.088 153.156 794.088ZM160.349 787.994C160.819 787.994 161.237 788.089 161.603 788.28C161.977 788.463 162.271 788.749 162.483 789.138C162.696 789.519 162.802 790.011 162.802 790.612V794H161.086V790.876C161.086 790.399 160.98 790.047 160.767 789.82C160.562 789.593 160.269 789.479 159.887 789.479C159.616 789.479 159.37 789.538 159.15 789.655C158.938 789.765 158.769 789.937 158.644 790.172C158.527 790.407 158.468 790.707 158.468 791.074V794H156.752V785.838H158.468V789.721L158.083 789.226C158.296 788.83 158.6 788.526 158.996 788.313C159.392 788.1 159.843 787.994 160.349 787.994ZM164.018 789.49L164.744 786.85L164.986 787.851C164.671 787.851 164.41 787.759 164.205 787.576C164.007 787.385 163.908 787.129 163.908 786.806C163.908 786.491 164.011 786.238 164.216 786.047C164.421 785.849 164.674 785.75 164.975 785.75C165.283 785.75 165.536 785.849 165.734 786.047C165.932 786.238 166.031 786.491 166.031 786.806C166.031 786.901 166.024 786.997 166.009 787.092C166.002 787.18 165.976 787.286 165.932 787.411C165.895 787.536 165.833 787.701 165.745 787.906L165.107 789.49H164.018ZM166.614 789.49L167.34 786.85L167.582 787.851C167.267 787.851 167.006 787.759 166.801 787.576C166.603 787.385 166.504 787.129 166.504 786.806C166.504 786.491 166.607 786.238 166.812 786.047C167.017 785.849 167.27 785.75 167.571 785.75C167.879 785.75 168.132 785.849 168.33 786.047C168.528 786.238 168.627 786.491 168.627 786.806C168.627 786.901 168.62 786.997 168.605 787.092C168.598 787.18 168.572 787.286 168.528 787.411C168.491 787.536 168.429 787.701 168.341 787.906L167.703 789.49H166.614Z" fill="white"/>
<path d="M112.706 428V423.505L120.549 416.251C121.045 415.776 121.407 415.362 121.634 415.011C121.882 414.66 122.047 414.35 122.13 414.081C122.213 413.792 122.254 413.523 122.254 413.275C122.254 412.738 122.078 412.324 121.727 412.035C121.376 411.725 120.849 411.57 120.146 411.57C119.505 411.57 118.896 411.746 118.317 412.097C117.738 412.428 117.284 412.924 116.953 413.585L111.435 410.826C112.22 409.338 113.398 408.129 114.969 407.199C116.54 406.269 118.493 405.804 120.828 405.804C122.543 405.804 124.062 406.083 125.385 406.641C126.708 407.199 127.741 407.984 128.485 408.997C129.229 410.01 129.601 411.208 129.601 412.593C129.601 413.296 129.508 413.998 129.322 414.701C129.157 415.404 128.805 416.148 128.268 416.933C127.731 417.698 126.935 418.555 125.881 419.506L119.991 424.869L118.844 422.327H130.097V428H112.706ZM141.424 428.496C139.502 428.496 137.797 428.052 136.309 427.163C134.842 426.274 133.685 424.983 132.837 423.288C132.011 421.593 131.597 419.547 131.597 417.15C131.597 414.753 132.011 412.707 132.837 411.012C133.685 409.317 134.842 408.026 136.309 407.137C137.797 406.248 139.502 405.804 141.424 405.804C143.346 405.804 145.041 406.248 146.508 407.137C147.996 408.026 149.154 409.317 149.98 411.012C150.828 412.707 151.251 414.753 151.251 417.15C151.251 419.547 150.828 421.593 149.98 423.288C149.154 424.983 147.996 426.274 146.508 427.163C145.041 428.052 143.346 428.496 141.424 428.496ZM141.424 422.637C141.9 422.637 142.323 422.472 142.695 422.141C143.067 421.81 143.357 421.242 143.563 420.436C143.791 419.63 143.904 418.535 143.904 417.15C143.904 415.745 143.791 414.649 143.563 413.864C143.357 413.058 143.067 412.49 142.695 412.159C142.323 411.828 141.9 411.663 141.424 411.663C140.949 411.663 140.525 411.828 140.153 412.159C139.781 412.49 139.482 413.058 139.254 413.864C139.048 414.649 138.944 415.745 138.944 417.15C138.944 418.535 139.048 419.63 139.254 420.436C139.482 421.242 139.781 421.81 140.153 422.141C140.525 422.472 140.949 422.637 141.424 422.637Z" fill="white"/>
<path d="M225.008 357V352.505L232.851 345.251C233.347 344.776 233.708 344.362 233.936 344.011C234.184 343.66 234.349 343.35 234.432 343.081C234.514 342.792 234.556 342.523 234.556 342.275C234.556 341.738 234.38 341.324 234.029 341.035C233.677 340.725 233.15 340.57 232.448 340.57C231.807 340.57 231.197 340.746 230.619 341.097C230.04 341.428 229.585 341.924 229.255 342.585L223.737 339.826C224.522 338.338 225.7 337.129 227.271 336.199C228.841 335.269 230.794 334.804 233.13 334.804C234.845 334.804 236.364 335.083 237.687 335.641C239.009 336.199 240.043 336.984 240.787 337.997C241.531 339.01 241.903 340.208 241.903 341.593C241.903 342.296 241.81 342.998 241.624 343.701C241.458 344.404 241.107 345.148 240.57 345.933C240.032 346.698 239.237 347.555 238.183 348.506L232.293 353.869L231.146 351.327H242.399V357H225.008ZM243.868 357V352.505L251.711 345.251C252.207 344.776 252.569 344.362 252.796 344.011C253.044 343.66 253.209 343.35 253.292 343.081C253.375 342.792 253.416 342.523 253.416 342.275C253.416 341.738 253.24 341.324 252.889 341.035C252.538 340.725 252.011 340.57 251.308 340.57C250.667 340.57 250.058 340.746 249.479 341.097C248.9 341.428 248.446 341.924 248.115 342.585L242.597 339.826C243.382 338.338 244.56 337.129 246.131 336.199C247.702 335.269 249.655 334.804 251.99 334.804C253.705 334.804 255.224 335.083 256.547 335.641C257.87 336.199 258.903 336.984 259.647 337.997C260.391 339.01 260.763 340.208 260.763 341.593C260.763 342.296 260.67 342.998 260.484 343.701C260.319 344.404 259.967 345.148 259.43 345.933C258.893 346.698 258.097 347.555 257.043 348.506L251.153 353.869L250.006 351.327H261.259V357H243.868Z" fill="white"/>
<path d="M335.19 296V291.505L343.033 284.251C343.529 283.776 343.891 283.362 344.118 283.011C344.366 282.66 344.532 282.35 344.614 282.081C344.697 281.792 344.738 281.523 344.738 281.275C344.738 280.738 344.563 280.324 344.211 280.035C343.86 279.725 343.333 279.57 342.63 279.57C341.99 279.57 341.38 279.746 340.801 280.097C340.223 280.428 339.768 280.924 339.437 281.585L333.919 278.826C334.705 277.338 335.883 276.129 337.453 275.199C339.024 274.269 340.977 273.804 343.312 273.804C345.028 273.804 346.547 274.083 347.869 274.641C349.192 275.199 350.225 275.984 350.969 276.997C351.713 278.01 352.085 279.208 352.085 280.593C352.085 281.296 351.992 281.998 351.806 282.701C351.641 283.404 351.29 284.148 350.752 284.933C350.215 285.698 349.419 286.555 348.365 287.506L342.475 292.869L341.328 290.327H352.581V296H335.19ZM364.498 296.496C362.431 296.496 360.612 296.103 359.042 295.318C357.492 294.512 356.272 293.324 355.384 291.753C354.516 290.162 354.082 288.188 354.082 285.832C354.082 283.29 354.588 281.13 355.601 279.353C356.613 277.555 358.019 276.181 359.817 275.23C361.635 274.279 363.733 273.804 366.11 273.804C367.391 273.804 368.621 273.959 369.799 274.269C370.997 274.558 372.01 274.972 372.837 275.509L370.202 280.624C369.561 280.169 368.91 279.87 368.249 279.725C367.608 279.56 366.947 279.477 366.265 279.477C364.797 279.477 363.619 279.921 362.731 280.81C361.863 281.678 361.429 282.949 361.429 284.623C361.429 284.933 361.429 285.243 361.429 285.553C361.429 285.842 361.429 286.142 361.429 286.452L359.755 285.243C360.168 284.54 360.654 283.951 361.212 283.476C361.77 282.98 362.431 282.608 363.196 282.36C363.96 282.091 364.849 281.957 365.862 281.957C367.184 281.957 368.404 282.246 369.52 282.825C370.656 283.383 371.566 284.179 372.248 285.212C372.95 286.245 373.302 287.475 373.302 288.901C373.302 290.451 372.909 291.794 372.124 292.931C371.338 294.068 370.274 294.946 368.931 295.566C367.608 296.186 366.13 296.496 364.498 296.496ZM364.002 291.443C364.436 291.443 364.818 291.36 365.149 291.195C365.5 291.009 365.769 290.751 365.955 290.42C366.141 290.089 366.234 289.697 366.234 289.242C366.234 288.56 366.027 288.023 365.614 287.63C365.2 287.217 364.663 287.01 364.002 287.01C363.568 287.01 363.185 287.103 362.855 287.289C362.524 287.475 362.255 287.733 362.049 288.064C361.863 288.395 361.77 288.787 361.77 289.242C361.77 289.697 361.863 290.089 362.049 290.42C362.255 290.751 362.524 291.009 362.855 291.195C363.185 291.36 363.568 291.443 364.002 291.443Z" fill="white"/>
<path d="M431.402 246V241.505L439.245 234.251C439.741 233.776 440.102 233.362 440.33 233.011C440.578 232.66 440.743 232.35 440.826 232.081C440.908 231.792 440.95 231.523 440.95 231.275C440.95 230.738 440.774 230.324 440.423 230.035C440.071 229.725 439.544 229.57 438.842 229.57C438.201 229.57 437.591 229.746 437.013 230.097C436.434 230.428 435.979 230.924 435.649 231.585L430.131 228.826C430.916 227.338 432.094 226.129 433.665 225.199C435.235 224.269 437.188 223.804 439.524 223.804C441.239 223.804 442.758 224.083 444.081 224.641C445.403 225.199 446.437 225.984 447.181 226.997C447.925 228.01 448.297 229.208 448.297 230.593C448.297 231.296 448.204 231.998 448.018 232.701C447.852 233.404 447.501 234.148 446.964 234.933C446.426 235.698 445.631 236.555 444.577 237.506L438.687 242.869L437.54 240.327H448.793V246H431.402ZM459.903 246.496C457.981 246.496 456.286 246.217 454.819 245.659C453.372 245.08 452.236 244.274 451.409 243.241C450.582 242.187 450.169 240.957 450.169 239.552C450.169 238.147 450.593 236.948 451.44 235.956C452.287 234.964 453.445 234.21 454.912 233.693C456.379 233.176 458.043 232.918 459.903 232.918C461.763 232.918 463.427 233.176 464.894 233.693C466.361 234.21 467.519 234.964 468.366 235.956C469.213 236.948 469.637 238.147 469.637 239.552C469.637 240.957 469.224 242.187 468.397 243.241C467.57 244.274 466.423 245.08 464.956 245.659C463.509 246.217 461.825 246.496 459.903 246.496ZM459.903 241.567C460.606 241.567 461.174 241.371 461.608 240.978C462.063 240.565 462.29 240.007 462.29 239.304C462.29 238.601 462.063 238.054 461.608 237.661C461.174 237.248 460.606 237.041 459.903 237.041C459.2 237.041 458.622 237.248 458.167 237.661C457.733 238.054 457.516 238.601 457.516 239.304C457.516 240.007 457.733 240.565 458.167 240.978C458.622 241.371 459.2 241.567 459.903 241.567ZM459.903 236.452C458.208 236.452 456.679 236.214 455.315 235.739C453.972 235.243 452.907 234.54 452.122 233.631C451.337 232.701 450.944 231.585 450.944 230.283C450.944 228.96 451.326 227.824 452.091 226.873C452.856 225.902 453.91 225.147 455.253 224.61C456.596 224.073 458.146 223.804 459.903 223.804C461.66 223.804 463.21 224.073 464.553 224.61C465.896 225.147 466.95 225.902 467.715 226.873C468.48 227.824 468.862 228.96 468.862 230.283C468.862 231.585 468.469 232.701 467.684 233.631C466.899 234.54 465.834 235.243 464.491 235.739C463.148 236.214 461.618 236.452 459.903 236.452ZM459.903 232.453C460.399 232.453 460.812 232.288 461.143 231.957C461.474 231.626 461.639 231.172 461.639 230.593C461.639 229.994 461.474 229.539 461.143 229.229C460.812 228.898 460.399 228.733 459.903 228.733C459.407 228.733 458.994 228.898 458.663 229.229C458.332 229.539 458.167 229.994 458.167 230.593C458.167 231.172 458.332 231.626 458.663 231.957C458.994 232.288 459.407 232.453 459.903 232.453ZM475.419 246.31C474.261 246.31 473.29 245.938 472.505 245.194C471.719 244.429 471.327 243.458 471.327 242.28C471.327 241.081 471.719 240.12 472.505 239.397C473.29 238.674 474.261 238.312 475.419 238.312C476.576 238.312 477.547 238.674 478.333 239.397C479.118 240.12 479.511 241.081 479.511 242.28C479.511 243.458 479.118 244.429 478.333 245.194C477.547 245.938 476.576 246.31 475.419 246.31ZM488.794 246.496C487.306 246.496 485.798 246.331 484.268 246C482.739 245.669 481.396 245.184 480.238 244.543L482.718 239.149C483.648 239.686 484.62 240.089 485.632 240.358C486.666 240.606 487.637 240.73 488.546 240.73C489.373 240.73 490.045 240.596 490.561 240.327C491.099 240.038 491.367 239.614 491.367 239.056C491.367 238.581 491.171 238.219 490.778 237.971C490.386 237.702 489.724 237.568 488.794 237.568H485.911V233.073L491.522 227.369L492.173 229.818H481.354V224.3H497.536V228.795L491.925 234.499L488.422 232.515H490.344C493.072 232.515 495.149 233.125 496.575 234.344C498.001 235.563 498.714 237.134 498.714 239.056C498.714 240.296 498.363 241.484 497.66 242.621C496.978 243.758 495.904 244.688 494.436 245.411C492.99 246.134 491.109 246.496 488.794 246.496Z" fill="white"/>
<path d="M233.553 782.132C233.033 782.132 232.552 782.037 232.112 781.846C231.68 781.648 231.324 781.369 231.045 781.01L232.035 779.822C232.248 780.101 232.472 780.313 232.706 780.46C232.941 780.599 233.194 780.669 233.465 780.669C234.191 780.669 234.554 780.244 234.554 779.393V775.73H231.848V774.3H236.325V779.294C236.325 780.247 236.091 780.959 235.621 781.428C235.152 781.897 234.463 782.132 233.553 782.132ZM240.901 782.088C240.227 782.088 239.633 781.956 239.119 781.692C238.613 781.428 238.221 781.069 237.942 780.614C237.664 780.152 237.524 779.628 237.524 779.041C237.524 778.447 237.66 777.923 237.931 777.468C238.21 777.006 238.588 776.647 239.064 776.39C239.541 776.126 240.08 775.994 240.681 775.994C241.261 775.994 241.781 776.119 242.243 776.368C242.713 776.61 243.083 776.962 243.354 777.424C243.626 777.879 243.761 778.425 243.761 779.063C243.761 779.129 243.758 779.206 243.75 779.294C243.743 779.375 243.736 779.452 243.728 779.525H238.921V778.524H242.826L242.166 778.821C242.166 778.513 242.104 778.245 241.979 778.018C241.855 777.791 241.682 777.615 241.462 777.49C241.242 777.358 240.986 777.292 240.692 777.292C240.399 777.292 240.139 777.358 239.911 777.49C239.691 777.615 239.519 777.794 239.394 778.029C239.27 778.256 239.207 778.528 239.207 778.843V779.107C239.207 779.43 239.277 779.716 239.416 779.965C239.563 780.207 239.765 780.394 240.021 780.526C240.285 780.651 240.593 780.713 240.945 780.713C241.261 780.713 241.536 780.665 241.77 780.57C242.012 780.475 242.232 780.332 242.43 780.141L243.343 781.131C243.072 781.439 242.731 781.677 242.32 781.846C241.91 782.007 241.437 782.088 240.901 782.088ZM247.401 782.088C246.909 782.088 246.469 781.993 246.081 781.802C245.699 781.611 245.402 781.322 245.19 780.933C244.977 780.537 244.871 780.035 244.871 779.426V776.082H246.587V779.173C246.587 779.664 246.689 780.027 246.895 780.262C247.107 780.489 247.404 780.603 247.786 780.603C248.05 780.603 248.284 780.548 248.49 780.438C248.695 780.321 248.856 780.145 248.974 779.91C249.091 779.668 249.15 779.367 249.15 779.008V776.082H250.866V782H249.238V780.372L249.535 780.845C249.337 781.256 249.043 781.567 248.655 781.78C248.273 781.985 247.855 782.088 247.401 782.088ZM206.339 786.838L205.613 789.478L205.371 788.488C205.687 788.488 205.943 788.58 206.141 788.763C206.339 788.946 206.438 789.199 206.438 789.522C206.438 789.837 206.336 790.094 206.13 790.292C205.932 790.483 205.683 790.578 205.382 790.578C205.074 790.578 204.818 790.483 204.612 790.292C204.414 790.094 204.315 789.837 204.315 789.522C204.315 789.427 204.323 789.335 204.337 789.247C204.352 789.152 204.381 789.042 204.425 788.917C204.469 788.792 204.532 788.627 204.612 788.422L205.25 786.838H206.339ZM208.935 786.838L208.209 789.478L207.967 788.488C208.283 788.488 208.539 788.58 208.737 788.763C208.935 788.946 209.034 789.199 209.034 789.522C209.034 789.837 208.932 790.094 208.726 790.292C208.528 790.483 208.279 790.578 207.978 790.578C207.67 790.578 207.414 790.483 207.208 790.292C207.01 790.094 206.911 789.837 206.911 789.522C206.911 789.427 206.919 789.335 206.933 789.247C206.948 789.152 206.977 789.042 207.021 788.917C207.065 788.792 207.128 788.627 207.208 788.422L207.846 786.838H208.935ZM214.018 795.132C213.424 795.132 212.87 795.037 212.357 794.846C211.851 794.648 211.411 794.369 211.037 794.01C210.663 793.651 210.37 793.229 210.157 792.745C209.952 792.261 209.849 791.729 209.849 791.15C209.849 790.571 209.952 790.039 210.157 789.555C210.37 789.071 210.663 788.649 211.037 788.29C211.418 787.931 211.862 787.656 212.368 787.465C212.874 787.267 213.428 787.168 214.029 787.168C214.696 787.168 215.298 787.285 215.833 787.52C216.376 787.747 216.83 788.085 217.197 788.532L216.053 789.588C215.789 789.287 215.496 789.064 215.173 788.917C214.85 788.763 214.498 788.686 214.117 788.686C213.758 788.686 213.428 788.745 213.127 788.862C212.826 788.979 212.566 789.148 212.346 789.368C212.126 789.588 211.954 789.848 211.829 790.149C211.712 790.45 211.653 790.783 211.653 791.15C211.653 791.517 211.712 791.85 211.829 792.151C211.954 792.452 212.126 792.712 212.346 792.932C212.566 793.152 212.826 793.321 213.127 793.438C213.428 793.555 213.758 793.614 214.117 793.614C214.498 793.614 214.85 793.541 215.173 793.394C215.496 793.24 215.789 793.009 216.053 792.701L217.197 793.757C216.83 794.204 216.376 794.545 215.833 794.78C215.298 795.015 214.693 795.132 214.018 795.132ZM221.866 795V793.845L221.756 793.592V791.524C221.756 791.157 221.643 790.871 221.415 790.666C221.195 790.461 220.854 790.358 220.392 790.358C220.077 790.358 219.765 790.409 219.457 790.512C219.157 790.607 218.9 790.739 218.687 790.908L218.071 789.709C218.394 789.482 218.783 789.306 219.237 789.181C219.692 789.056 220.154 788.994 220.623 788.994C221.525 788.994 222.226 789.207 222.724 789.632C223.223 790.057 223.472 790.721 223.472 791.623V795H221.866ZM220.062 795.088C219.6 795.088 219.204 795.011 218.874 794.857C218.544 794.696 218.291 794.479 218.115 794.208C217.939 793.937 217.851 793.632 217.851 793.295C217.851 792.943 217.936 792.635 218.104 792.371C218.28 792.107 218.555 791.902 218.929 791.755C219.303 791.601 219.791 791.524 220.392 791.524H221.965V792.525H220.579C220.176 792.525 219.897 792.591 219.743 792.723C219.597 792.855 219.523 793.02 219.523 793.218C219.523 793.438 219.608 793.614 219.776 793.746C219.952 793.871 220.191 793.933 220.491 793.933C220.777 793.933 221.034 793.867 221.261 793.735C221.489 793.596 221.654 793.394 221.756 793.13L222.02 793.922C221.896 794.303 221.668 794.593 221.338 794.791C221.008 794.989 220.583 795.088 220.062 795.088ZM225.025 795V786.838H226.741V795H225.025ZM228.334 795V786.838H230.05V795H228.334ZM237.574 795.088C236.943 795.088 236.382 794.956 235.891 794.692C235.407 794.428 235.022 794.069 234.736 793.614C234.457 793.152 234.318 792.628 234.318 792.041C234.318 791.447 234.457 790.923 234.736 790.468C235.022 790.006 235.407 789.647 235.891 789.39C236.382 789.126 236.943 788.994 237.574 788.994C238.197 788.994 238.754 789.126 239.246 789.39C239.737 789.647 240.122 790.002 240.401 790.457C240.679 790.912 240.819 791.44 240.819 792.041C240.819 792.628 240.679 793.152 240.401 793.614C240.122 794.069 239.737 794.428 239.246 794.692C238.754 794.956 238.197 795.088 237.574 795.088ZM237.574 793.68C237.86 793.68 238.116 793.614 238.344 793.482C238.571 793.35 238.751 793.163 238.883 792.921C239.015 792.672 239.081 792.378 239.081 792.041C239.081 791.696 239.015 791.403 238.883 791.161C238.751 790.919 238.571 790.732 238.344 790.6C238.116 790.468 237.86 790.402 237.574 790.402C237.288 790.402 237.031 790.468 236.804 790.6C236.576 790.732 236.393 790.919 236.254 791.161C236.122 791.403 236.056 791.696 236.056 792.041C236.056 792.378 236.122 792.672 236.254 792.921C236.393 793.163 236.576 793.35 236.804 793.482C237.031 793.614 237.288 793.68 237.574 793.68ZM242.175 795V788.95C242.175 788.283 242.373 787.751 242.769 787.355C243.165 786.952 243.729 786.75 244.463 786.75C244.712 786.75 244.95 786.776 245.178 786.827C245.412 786.878 245.61 786.959 245.772 787.069L245.321 788.312C245.225 788.246 245.119 788.195 245.002 788.158C244.884 788.121 244.76 788.103 244.628 788.103C244.378 788.103 244.184 788.176 244.045 788.323C243.913 788.462 243.847 788.675 243.847 788.961V789.511L243.891 790.248V795H242.175ZM241.262 790.534V789.214H245.365V790.534H241.262ZM249.456 795V787.3H252.954C253.79 787.3 254.527 787.461 255.165 787.784C255.803 788.099 256.302 788.543 256.661 789.115C257.02 789.687 257.2 790.365 257.2 791.15C257.2 791.927 257.02 792.606 256.661 793.185C256.302 793.757 255.803 794.204 255.165 794.527C254.527 794.842 253.79 795 252.954 795H249.456ZM251.238 793.537H252.866C253.379 793.537 253.823 793.442 254.197 793.251C254.578 793.053 254.872 792.774 255.077 792.415C255.29 792.056 255.396 791.634 255.396 791.15C255.396 790.659 255.29 790.237 255.077 789.885C254.872 789.526 254.578 789.251 254.197 789.06C253.823 788.862 253.379 788.763 252.866 788.763H251.238V793.537ZM260.92 795.088C260.429 795.088 259.989 794.993 259.6 794.802C259.219 794.611 258.922 794.322 258.709 793.933C258.496 793.537 258.39 793.035 258.39 792.426V789.082H260.106V792.173C260.106 792.664 260.209 793.027 260.414 793.262C260.627 793.489 260.924 793.603 261.305 793.603C261.569 793.603 261.804 793.548 262.009 793.438C262.214 793.321 262.376 793.145 262.493 792.91C262.61 792.668 262.669 792.367 262.669 792.008V789.082H264.385V795H262.757V793.372L263.054 793.845C262.856 794.256 262.563 794.567 262.174 794.78C261.793 794.985 261.375 795.088 260.92 795.088ZM268.395 795.088C267.698 795.088 267.155 794.912 266.767 794.56C266.378 794.201 266.184 793.669 266.184 792.965V787.773H267.9V792.943C267.9 793.192 267.966 793.387 268.098 793.526C268.23 793.658 268.409 793.724 268.637 793.724C268.908 793.724 269.139 793.651 269.33 793.504L269.792 794.714C269.616 794.839 269.403 794.934 269.154 795C268.912 795.059 268.659 795.088 268.395 795.088ZM265.271 790.534V789.214H269.374V790.534H265.271ZM271.395 797.222C271.087 797.222 270.783 797.174 270.482 797.079C270.182 796.984 269.936 796.852 269.745 796.683L270.372 795.462C270.504 795.579 270.655 795.671 270.823 795.737C270.999 795.803 271.172 795.836 271.34 795.836C271.582 795.836 271.773 795.777 271.912 795.66C272.059 795.55 272.191 795.363 272.308 795.099L272.616 794.373L272.748 794.186L274.871 789.082H276.521L273.848 795.363C273.658 795.84 273.438 796.214 273.188 796.485C272.946 796.756 272.675 796.947 272.374 797.057C272.081 797.167 271.755 797.222 271.395 797.222ZM272.407 795.231L269.767 789.082H271.538L273.584 794.032L272.407 795.231ZM277.075 790.49L277.801 787.85L278.043 788.851C277.728 788.851 277.467 788.759 277.262 788.576C277.064 788.385 276.965 788.129 276.965 787.806C276.965 787.491 277.068 787.238 277.273 787.047C277.478 786.849 277.731 786.75 278.032 786.75C278.34 786.75 278.593 786.849 278.791 787.047C278.989 787.238 279.088 787.491 279.088 787.806C279.088 787.901 279.081 787.997 279.066 788.092C279.059 788.18 279.033 788.286 278.989 788.411C278.952 788.536 278.89 788.701 278.802 788.906L278.164 790.49H277.075ZM279.671 790.49L280.397 787.85L280.639 788.851C280.324 788.851 280.063 788.759 279.858 788.576C279.66 788.385 279.561 788.129 279.561 787.806C279.561 787.491 279.664 787.238 279.869 787.047C280.074 786.849 280.327 786.75 280.628 786.75C280.936 786.75 281.189 786.849 281.387 787.047C281.585 787.238 281.684 787.491 281.684 787.806C281.684 787.901 281.677 787.997 281.662 788.092C281.655 788.18 281.629 788.286 281.585 788.411C281.548 788.536 281.486 788.701 281.398 788.906L280.76 790.49H279.671Z" fill="white"/>
<path d="M343.055 791V783.3H344.529L349.072 788.844H348.357V783.3H350.117V791H348.654L344.1 785.456H344.815V791H343.055ZM351.938 791V783.3H355.7C356.668 783.3 357.394 783.483 357.878 783.85C358.37 784.217 358.615 784.701 358.615 785.302C358.615 785.705 358.516 786.057 358.318 786.358C358.12 786.651 357.849 786.879 357.504 787.04C357.16 787.201 356.764 787.282 356.316 787.282L356.525 786.831C357.009 786.831 357.438 786.912 357.812 787.073C358.186 787.227 358.476 787.458 358.681 787.766C358.894 788.074 359 788.452 359 788.899C359 789.559 358.74 790.076 358.219 790.45C357.699 790.817 356.932 791 355.92 791H351.938ZM353.709 789.658H355.788C356.25 789.658 356.599 789.585 356.833 789.438C357.075 789.284 357.196 789.042 357.196 788.712C357.196 788.389 357.075 788.151 356.833 787.997C356.599 787.836 356.25 787.755 355.788 787.755H353.577V786.457H355.48C355.913 786.457 356.243 786.384 356.47 786.237C356.705 786.083 356.822 785.852 356.822 785.544C356.822 785.243 356.705 785.02 356.47 784.873C356.243 784.719 355.913 784.642 355.48 784.642H353.709V789.658ZM359.338 791L362.77 783.3H364.53L367.973 791H366.103L363.287 784.202H363.991L361.164 791H359.338ZM361.054 789.35L361.527 787.997H365.487L365.971 789.35H361.054Z" fill="white"/>
<path d="M439.794 785.765H443.49V787.195H439.794V785.765ZM439.926 790H438.144V782.3H443.963V783.73H439.926V790ZM447.714 790.088C447.084 790.088 446.523 789.956 446.031 789.692C445.547 789.428 445.162 789.069 444.876 788.614C444.598 788.152 444.458 787.628 444.458 787.041C444.458 786.447 444.598 785.923 444.876 785.468C445.162 785.006 445.547 784.647 446.031 784.39C446.523 784.126 447.084 783.994 447.714 783.994C448.338 783.994 448.895 784.126 449.386 784.39C449.878 784.647 450.263 785.002 450.541 785.457C450.82 785.912 450.959 786.44 450.959 787.041C450.959 787.628 450.82 788.152 450.541 788.614C450.263 789.069 449.878 789.428 449.386 789.692C448.895 789.956 448.338 790.088 447.714 790.088ZM447.714 788.68C448 788.68 448.257 788.614 448.484 788.482C448.712 788.35 448.891 788.163 449.023 787.921C449.155 787.672 449.221 787.378 449.221 787.041C449.221 786.696 449.155 786.403 449.023 786.161C448.891 785.919 448.712 785.732 448.484 785.6C448.257 785.468 448 785.402 447.714 785.402C447.428 785.402 447.172 785.468 446.944 785.6C446.717 785.732 446.534 785.919 446.394 786.161C446.262 786.403 446.196 786.696 446.196 787.041C446.196 787.378 446.262 787.672 446.394 787.921C446.534 788.163 446.717 788.35 446.944 788.482C447.172 788.614 447.428 788.68 447.714 788.68ZM452.106 790V784.082H453.745V785.754L453.514 785.27C453.69 784.852 453.973 784.537 454.361 784.324C454.75 784.104 455.223 783.994 455.78 783.994V785.578C455.707 785.571 455.641 785.567 455.582 785.567C455.524 785.56 455.461 785.556 455.395 785.556C454.926 785.556 454.545 785.692 454.251 785.963C453.965 786.227 453.822 786.641 453.822 787.206V790H452.106ZM464.38 783.994C464.849 783.994 465.263 784.089 465.623 784.28C465.989 784.463 466.275 784.749 466.481 785.138C466.693 785.519 466.8 786.011 466.8 786.612V790H465.084V786.876C465.084 786.399 464.985 786.047 464.787 785.82C464.589 785.593 464.31 785.479 463.951 785.479C463.701 785.479 463.478 785.538 463.28 785.655C463.082 785.765 462.928 785.934 462.818 786.161C462.708 786.388 462.653 786.678 462.653 787.03V790H460.937V786.876C460.937 786.399 460.838 786.047 460.64 785.82C460.449 785.593 460.174 785.479 459.815 785.479C459.565 785.479 459.342 785.538 459.144 785.655C458.946 785.765 458.792 785.934 458.682 786.161C458.572 786.388 458.517 786.678 458.517 787.03V790H456.801V784.082H458.44V785.699L458.132 785.226C458.337 784.823 458.627 784.518 459.001 784.313C459.382 784.1 459.815 783.994 460.299 783.994C460.841 783.994 461.314 784.133 461.718 784.412C462.128 784.683 462.4 785.101 462.532 785.666L461.927 785.501C462.125 785.039 462.44 784.672 462.873 784.401C463.313 784.13 463.815 783.994 464.38 783.994ZM470.835 790.088C470.344 790.088 469.904 789.993 469.515 789.802C469.134 789.611 468.837 789.322 468.624 788.933C468.411 788.537 468.305 788.035 468.305 787.426V784.082H470.021V787.173C470.021 787.664 470.124 788.027 470.329 788.262C470.542 788.489 470.839 788.603 471.22 788.603C471.484 788.603 471.719 788.548 471.924 788.438C472.129 788.321 472.291 788.145 472.408 787.91C472.525 787.668 472.584 787.367 472.584 787.008V784.082H474.3V790H472.672V788.372L472.969 788.845C472.771 789.256 472.478 789.567 472.089 789.78C471.708 789.985 471.29 790.088 470.835 790.088ZM475.89 790V781.838H477.606V790H475.89ZM482.135 790.088C481.461 790.088 480.867 789.956 480.353 789.692C479.847 789.428 479.455 789.069 479.176 788.614C478.898 788.152 478.758 787.628 478.758 787.041C478.758 786.447 478.894 785.923 479.165 785.468C479.444 785.006 479.822 784.647 480.298 784.39C480.775 784.126 481.314 783.994 481.915 783.994C482.495 783.994 483.015 784.119 483.477 784.368C483.947 784.61 484.317 784.962 484.588 785.424C484.86 785.879 484.995 786.425 484.995 787.063C484.995 787.129 484.992 787.206 484.984 787.294C484.977 787.375 484.97 787.452 484.962 787.525H480.155V786.524H484.06L483.4 786.821C483.4 786.513 483.338 786.245 483.213 786.018C483.089 785.791 482.916 785.615 482.696 785.49C482.476 785.358 482.22 785.292 481.926 785.292C481.633 785.292 481.373 785.358 481.145 785.49C480.925 785.615 480.753 785.794 480.628 786.029C480.504 786.256 480.441 786.528 480.441 786.843V787.107C480.441 787.43 480.511 787.716 480.65 787.965C480.797 788.207 480.999 788.394 481.255 788.526C481.519 788.651 481.827 788.713 482.179 788.713C482.495 788.713 482.77 788.665 483.004 788.57C483.246 788.475 483.466 788.332 483.664 788.141L484.577 789.131C484.306 789.439 483.965 789.677 483.554 789.846C483.144 790.007 482.671 790.088 482.135 790.088ZM490.078 790V782.96L490.848 783.73H488.538V782.3H491.86V790H490.078Z" fill="white"/>
<line x1="4.3563e-08" y1="-0.5" x2="589" y2="-0.499949" stroke="white"/>
</g>
<defs>
<clipPath id="clip0_1_30">
<rect width="589" height="803" fill="white"/>
</clipPath>
</defs>
</svg>
