<svg width="472" height="170" viewBox="0 0 472 170" fill="none" xmlns="http://www.w3.org/2000/svg">
<g clip-path="url(#clip0_14_34)">
<mask id="path-1-outside-1_14_34" maskUnits="userSpaceOnUse" x="79" y="21" width="342" height="77" fill="black">
<rect fill="white" x="79" y="21" width="342" height="77"/>
<path d="M86.88 93V81.096L112.032 57.576C113.824 55.912 115.136 54.44 115.968 53.16C116.864 51.88 117.44 50.728 117.696 49.704C118.016 48.616 118.176 47.624 118.176 46.728C118.176 44.552 117.44 42.856 115.968 41.64C114.56 40.424 112.416 39.816 109.536 39.816C107.104 39.816 104.832 40.36 102.72 41.448C100.608 42.536 98.88 44.168 97.536 46.344L83.424 38.472C85.92 34.248 89.536 30.856 94.272 28.296C99.008 25.736 104.672 24.456 111.264 24.456C116.448 24.456 120.992 25.288 124.896 26.952C128.8 28.616 131.84 30.984 134.016 34.056C136.256 37.128 137.376 40.744 137.376 44.904C137.376 47.08 137.088 49.256 136.512 51.432C135.936 53.544 134.816 55.816 133.152 58.248C131.552 60.616 129.152 63.272 125.952 66.216L105.984 84.648L102.816 77.928H139.2V93H86.88ZM174.397 94.344C168.637 94.344 163.517 92.968 159.037 90.216C154.621 87.464 151.133 83.496 148.573 78.312C146.013 73.128 144.733 66.824 144.733 59.4C144.733 51.976 146.013 45.672 148.573 40.488C151.133 35.304 154.621 31.336 159.037 28.584C163.517 25.832 168.637 24.456 174.397 24.456C180.093 24.456 185.149 25.832 189.565 28.584C194.045 31.336 197.565 35.304 200.125 40.488C202.685 45.672 203.965 51.976 203.965 59.4C203.965 66.824 202.685 73.128 200.125 78.312C197.565 83.496 194.045 87.464 189.565 90.216C185.149 92.968 180.093 94.344 174.397 94.344ZM174.397 78.792C176.445 78.792 178.237 78.152 179.773 76.872C181.373 75.592 182.621 73.544 183.517 70.728C184.413 67.848 184.861 64.072 184.861 59.4C184.861 54.664 184.413 50.888 183.517 48.072C182.621 45.256 181.373 43.208 179.773 41.928C178.237 40.648 176.445 40.008 174.397 40.008C172.349 40.008 170.525 40.648 168.925 41.928C167.389 43.208 166.141 45.256 165.181 48.072C164.285 50.888 163.837 54.664 163.837 59.4C163.837 64.072 164.285 67.848 165.181 70.728C166.141 73.544 167.389 75.592 168.925 76.872C170.525 78.152 172.349 78.792 174.397 78.792ZM240.116 94.344C234.356 94.344 229.236 92.968 224.756 90.216C220.34 87.464 216.852 83.496 214.292 78.312C211.732 73.128 210.452 66.824 210.452 59.4C210.452 51.976 211.732 45.672 214.292 40.488C216.852 35.304 220.34 31.336 224.756 28.584C229.236 25.832 234.356 24.456 240.116 24.456C245.812 24.456 250.868 25.832 255.284 28.584C259.764 31.336 263.284 35.304 265.844 40.488C268.404 45.672 269.684 51.976 269.684 59.4C269.684 66.824 268.404 73.128 265.844 78.312C263.284 83.496 259.764 87.464 255.284 90.216C250.868 92.968 245.812 94.344 240.116 94.344ZM240.116 78.792C242.164 78.792 243.956 78.152 245.492 76.872C247.092 75.592 248.34 73.544 249.236 70.728C250.132 67.848 250.58 64.072 250.58 59.4C250.58 54.664 250.132 50.888 249.236 48.072C248.34 45.256 247.092 43.208 245.492 41.928C243.956 40.648 242.164 40.008 240.116 40.008C238.068 40.008 236.244 40.648 234.644 41.928C233.108 43.208 231.86 45.256 230.9 48.072C230.004 50.888 229.556 54.664 229.556 59.4C229.556 64.072 230.004 67.848 230.9 70.728C231.86 73.544 233.108 75.592 234.644 76.872C236.244 78.152 238.068 78.792 240.116 78.792ZM305.834 94.344C300.074 94.344 294.954 92.968 290.474 90.216C286.058 87.464 282.57 83.496 280.01 78.312C277.45 73.128 276.17 66.824 276.17 59.4C276.17 51.976 277.45 45.672 280.01 40.488C282.57 35.304 286.058 31.336 290.474 28.584C294.954 25.832 300.074 24.456 305.834 24.456C311.53 24.456 316.586 25.832 321.002 28.584C325.482 31.336 329.002 35.304 331.562 40.488C334.122 45.672 335.402 51.976 335.402 59.4C335.402 66.824 334.122 73.128 331.562 78.312C329.002 83.496 325.482 87.464 321.002 90.216C316.586 92.968 311.53 94.344 305.834 94.344ZM305.834 78.792C307.882 78.792 309.674 78.152 311.21 76.872C312.81 75.592 314.058 73.544 314.954 70.728C315.85 67.848 316.298 64.072 316.298 59.4C316.298 54.664 315.85 50.888 314.954 48.072C314.058 45.256 312.81 43.208 311.21 41.928C309.674 40.648 307.882 40.008 305.834 40.008C303.786 40.008 301.962 40.648 300.362 41.928C298.826 43.208 297.578 45.256 296.618 48.072C295.722 50.888 295.274 54.664 295.274 59.4C295.274 64.072 295.722 67.848 296.618 70.728C297.578 73.544 298.826 75.592 300.362 76.872C301.962 78.152 303.786 78.792 305.834 78.792ZM341.505 70.728V61.32H393.345V70.728H341.505ZM341.505 57.48V48.072H393.345V57.48H341.505ZM387.393 94.344C382.081 94.344 377.153 93.512 372.609 91.848C368.129 90.12 364.225 87.688 360.897 84.552C357.633 81.416 355.073 77.736 353.217 73.512C351.361 69.224 350.433 64.52 350.433 59.4C350.433 54.28 351.361 49.608 353.217 45.384C355.073 41.096 357.633 37.384 360.897 34.248C364.225 31.112 368.129 28.712 372.609 27.048C377.153 25.32 382.081 24.456 387.393 24.456C393.601 24.456 399.137 25.544 404.001 27.72C408.929 29.896 413.025 33.032 416.289 37.128L404.193 48.072C402.081 45.512 399.713 43.56 397.089 42.216C394.465 40.872 391.553 40.2 388.353 40.2C385.601 40.2 383.073 40.648 380.769 41.544C378.529 42.44 376.577 43.752 374.913 45.48C373.249 47.144 371.937 49.16 370.977 51.528C370.081 53.896 369.633 56.52 369.633 59.4C369.633 62.28 370.081 64.904 370.977 67.272C371.937 69.64 373.249 71.688 374.913 73.416C376.577 75.08 378.529 76.36 380.769 77.256C383.073 78.152 385.601 78.6 388.353 78.6C391.553 78.6 394.465 77.928 397.089 76.584C399.713 75.24 402.081 73.288 404.193 70.728L416.289 81.672C413.025 85.704 408.929 88.84 404.001 91.08C399.137 93.256 393.601 94.344 387.393 94.344Z"/>
</mask>
<path d="M86.88 93H83.88V96H86.88V93ZM86.88 81.096L84.831 78.9048L83.88 79.794V81.096H86.88ZM112.032 57.576L109.991 55.3776L109.983 55.3848L112.032 57.576ZM115.968 53.16L113.51 51.4396L113.481 51.4818L113.453 51.525L115.968 53.16ZM117.696 49.704L114.818 48.8575L114.801 48.9166L114.786 48.9764L117.696 49.704ZM115.968 41.64L114.007 43.9105L114.032 43.9319L114.057 43.9529L115.968 41.64ZM102.72 41.448L104.094 44.1149L104.094 44.1149L102.72 41.448ZM97.536 46.344L96.0745 48.9639L98.5805 50.3618L100.088 47.9205L97.536 46.344ZM83.424 38.472L80.8412 36.9458L79.2766 39.5937L81.9625 41.0919L83.424 38.472ZM94.272 28.296L95.6986 30.9351L95.6986 30.9351L94.272 28.296ZM124.896 26.952L123.72 29.7118L123.72 29.7118L124.896 26.952ZM134.016 34.056L131.568 35.79L131.58 35.8069L131.592 35.8235L134.016 34.056ZM136.512 51.432L139.406 52.2213L139.409 52.2105L139.412 52.1997L136.512 51.432ZM133.152 58.248L130.676 56.5539L130.671 56.5612L130.666 56.5684L133.152 58.248ZM125.952 66.216L123.921 64.0082L123.917 64.0116L125.952 66.216ZM105.984 84.648L103.27 85.9273L105.014 89.626L108.019 86.8524L105.984 84.648ZM102.816 77.928V74.928H98.0851L100.102 79.2073L102.816 77.928ZM139.2 77.928H142.2V74.928H139.2V77.928ZM139.2 93V96H142.2V93H139.2ZM89.88 93V81.096H83.88V93H89.88ZM88.929 83.2872L114.081 59.7672L109.983 55.3848L84.831 78.9048L88.929 83.2872ZM114.073 59.7744C115.952 58.0302 117.462 56.367 118.483 54.795L113.453 51.525C112.81 52.513 111.696 53.7938 109.991 55.3776L114.073 59.7744ZM118.426 54.8804C119.44 53.4307 120.23 51.939 120.606 50.4316L114.786 48.9764C114.65 49.517 114.288 50.3293 113.51 51.4396L118.426 54.8804ZM120.574 50.5505C120.955 49.2569 121.176 47.9748 121.176 46.728H115.176C115.176 47.2732 115.077 47.9751 114.818 48.8575L120.574 50.5505ZM121.176 46.728C121.176 43.7975 120.142 41.1967 117.879 39.3271L114.057 43.9529C114.738 44.5153 115.176 45.3065 115.176 46.728H121.176ZM117.929 39.3695C115.746 37.4843 112.759 36.816 109.536 36.816V42.816C112.073 42.816 113.374 43.3637 114.007 43.9105L117.929 39.3695ZM109.536 36.816C106.638 36.816 103.893 37.4689 101.346 38.7811L104.094 44.1149C105.771 43.2511 107.57 42.816 109.536 42.816V36.816ZM101.346 38.7811C98.7124 40.1378 96.5913 42.1645 94.9836 44.7675L100.088 47.9205C101.169 46.1715 102.504 44.9342 104.094 44.1149L101.346 38.7811ZM98.9975 43.7241L84.8855 35.8521L81.9625 41.0919L96.0745 48.9639L98.9975 43.7241ZM86.0068 39.9982C88.199 36.2882 91.3938 33.262 95.6986 30.9351L92.8454 25.6569C87.6782 28.45 83.641 32.2078 80.8412 36.9458L86.0068 39.9982ZM95.6986 30.9351C99.9084 28.6595 105.06 27.456 111.264 27.456V21.456C104.284 21.456 98.1076 22.8125 92.8454 25.6569L95.6986 30.9351ZM111.264 27.456C116.131 27.456 120.26 28.2373 123.72 29.7118L126.072 24.1922C121.724 22.3387 116.765 21.456 111.264 21.456V27.456ZM123.72 29.7118C127.18 31.1865 129.752 33.2268 131.568 35.79L136.464 32.3219C133.928 28.7412 130.42 26.0455 126.072 24.1922L123.72 29.7118ZM131.592 35.8235C133.422 38.3335 134.376 41.3163 134.376 44.904H140.376C140.376 40.1717 139.09 35.9225 136.44 32.2885L131.592 35.8235ZM134.376 44.904C134.376 46.8121 134.124 48.7302 133.612 50.6643L139.412 52.1997C140.052 49.7818 140.376 47.3479 140.376 44.904H134.376ZM133.618 50.6426C133.154 52.3418 132.212 54.3088 130.676 56.5539L135.628 59.9421C137.42 57.3232 138.718 54.7462 139.406 52.2213L133.618 50.6426ZM130.666 56.5684C129.246 58.6709 127.028 61.1493 123.921 64.0082L127.983 68.4238C131.276 65.3947 133.858 62.561 135.638 59.9276L130.666 56.5684ZM123.917 64.0116L103.949 82.4436L108.019 86.8524L127.987 68.4204L123.917 64.0116ZM108.698 83.3687L105.53 76.6487L100.102 79.2073L103.27 85.9273L108.698 83.3687ZM102.816 80.928H139.2V74.928H102.816V80.928ZM136.2 77.928V93H142.2V77.928H136.2ZM139.2 90H86.88V96H139.2V90ZM159.037 90.216L157.45 92.7621L157.458 92.7672L157.466 92.7722L159.037 90.216ZM148.573 78.312L145.883 79.6403L145.883 79.6403L148.573 78.312ZM148.573 40.488L145.883 39.1597L145.883 39.1597L148.573 40.488ZM159.037 28.584L157.466 26.0278L157.458 26.0328L157.45 26.0379L159.037 28.584ZM189.565 28.584L187.978 31.1301L187.986 31.1352L187.995 31.1402L189.565 28.584ZM200.125 40.488L197.435 41.8163L197.435 41.8163L200.125 40.488ZM200.125 78.312L197.435 76.9837L197.435 76.9837L200.125 78.312ZM189.565 90.216L187.994 87.6598L187.986 87.6648L187.978 87.6699L189.565 90.216ZM179.773 76.872L177.899 74.5294L177.875 74.5481L177.852 74.5673L179.773 76.872ZM183.517 70.728L186.376 71.6376L186.378 71.6284L186.381 71.6192L183.517 70.728ZM179.773 41.928L177.852 44.2327L177.875 44.2519L177.899 44.2706L179.773 41.928ZM168.925 41.928L167.051 39.5854L167.027 39.6041L167.004 39.6233L168.925 41.928ZM165.181 48.072L162.341 47.104L162.331 47.1331L162.322 47.1624L165.181 48.072ZM165.181 70.728L162.316 71.6192L162.328 71.6578L162.341 71.696L165.181 70.728ZM168.925 76.872L167.004 79.1767L167.027 79.1959L167.051 79.2146L168.925 76.872ZM174.397 91.344C169.136 91.344 164.57 90.0942 160.607 87.6598L157.466 92.7722C162.463 95.8418 168.137 97.344 174.397 97.344V91.344ZM160.623 87.6699C156.733 85.2454 153.604 81.7244 151.263 76.9837L145.883 79.6403C148.662 85.2676 152.509 89.6826 157.45 92.7621L160.623 87.6699ZM151.263 76.9837C148.956 72.313 147.733 66.4899 147.733 59.4H141.733C141.733 67.1581 143.069 73.943 145.883 79.6403L151.263 76.9837ZM147.733 59.4C147.733 52.3101 148.956 46.487 151.263 41.8163L145.883 39.1597C143.069 44.857 141.733 51.6419 141.733 59.4H147.733ZM151.263 41.8163C153.604 37.0756 156.733 33.5546 160.623 31.1301L157.45 26.0379C152.509 29.1174 148.662 33.5324 145.883 39.1597L151.263 41.8163ZM160.607 31.1402C164.57 28.7058 169.136 27.456 174.397 27.456V21.456C168.137 21.456 162.463 22.9582 157.466 26.0278L160.607 31.1402ZM174.397 27.456C179.587 27.456 184.083 28.7025 187.978 31.1301L191.151 26.0379C186.215 22.9614 180.599 21.456 174.397 21.456V27.456ZM187.995 31.1402C191.946 33.5674 195.099 37.0866 197.435 41.8163L202.815 39.1597C200.03 33.5214 196.144 29.1046 191.135 26.0278L187.995 31.1402ZM197.435 41.8163C199.741 46.487 200.965 52.3101 200.965 59.4H206.965C206.965 51.6419 205.628 44.857 202.815 39.1597L197.435 41.8163ZM200.965 59.4C200.965 66.4899 199.741 72.313 197.435 76.9837L202.815 79.6403C205.628 73.943 206.965 67.1581 206.965 59.4H200.965ZM197.435 76.9837C195.099 81.7134 191.946 85.2326 187.994 87.6598L191.135 92.7722C196.144 89.6954 200.03 85.2786 202.815 79.6403L197.435 76.9837ZM187.978 87.6699C184.083 90.0975 179.587 91.344 174.397 91.344V97.344C180.599 97.344 186.215 95.8385 191.151 92.7621L187.978 87.6699ZM174.397 81.792C177.128 81.792 179.604 80.9177 181.693 79.1767L177.852 74.5673C176.869 75.3863 175.762 75.792 174.397 75.792V81.792ZM181.647 79.2146C183.872 77.4346 185.376 74.7803 186.376 71.6376L180.658 69.8184C179.866 72.3077 178.874 73.7494 177.899 74.5294L181.647 79.2146ZM186.381 71.6192C187.402 68.3379 187.861 64.2276 187.861 59.4H181.861C181.861 63.9164 181.423 67.3581 180.652 69.8368L186.381 71.6192ZM187.861 59.4C187.861 54.5176 187.404 50.3951 186.376 47.1624L180.658 48.9816C181.421 51.3809 181.861 54.8104 181.861 59.4H187.861ZM186.376 47.1624C185.376 44.0197 183.872 41.3654 181.647 39.5854L177.899 44.2706C178.874 45.0506 179.866 46.4923 180.658 48.9816L186.376 47.1624ZM181.693 39.6233C179.604 37.8823 177.128 37.008 174.397 37.008V43.008C175.762 43.008 176.869 43.4137 177.852 44.2327L181.693 39.6233ZM174.397 37.008C171.667 37.008 169.182 37.8801 167.051 39.5854L170.799 44.2706C171.867 43.4159 173.03 43.008 174.397 43.008V37.008ZM167.004 39.6233C164.887 41.388 163.398 44.0039 162.341 47.104L168.02 49.04C168.883 46.508 169.891 45.028 170.845 44.2327L167.004 39.6233ZM162.322 47.1624C161.293 50.3951 160.837 54.5176 160.837 59.4H166.837C166.837 54.8104 167.276 51.3809 168.04 48.9816L162.322 47.1624ZM160.837 59.4C160.837 64.2276 161.295 68.3379 162.316 71.6192L168.045 69.8368C167.274 67.3581 166.837 63.9164 166.837 59.4H160.837ZM162.341 71.696C163.398 74.796 164.887 77.412 167.004 79.1767L170.845 74.5673C169.891 73.772 168.883 72.292 168.02 69.76L162.341 71.696ZM167.051 79.2146C169.182 80.9199 171.667 81.792 174.397 81.792V75.792C173.03 75.792 171.867 75.3841 170.799 74.5294L167.051 79.2146ZM224.756 90.216L223.169 92.7621L223.177 92.7672L223.185 92.7722L224.756 90.216ZM214.292 78.312L211.602 79.6403L211.602 79.6403L214.292 78.312ZM214.292 40.488L211.602 39.1597L211.602 39.1597L214.292 40.488ZM224.756 28.584L223.185 26.0278L223.177 26.0328L223.169 26.0379L224.756 28.584ZM255.284 28.584L253.697 31.1301L253.705 31.1352L253.713 31.1402L255.284 28.584ZM265.844 40.488L263.154 41.8163L263.154 41.8163L265.844 40.488ZM265.844 78.312L263.154 76.9837L263.154 76.9837L265.844 78.312ZM255.284 90.216L253.713 87.6598L253.705 87.6648L253.697 87.6699L255.284 90.216ZM245.492 76.872L243.617 74.5294L243.594 74.5481L243.571 74.5673L245.492 76.872ZM249.236 70.728L252.094 71.6376L252.097 71.6284L252.1 71.6192L249.236 70.728ZM245.492 41.928L243.571 44.2327L243.594 44.2519L243.617 44.2706L245.492 41.928ZM234.644 41.928L232.769 39.5854L232.746 39.6041L232.723 39.6233L234.644 41.928ZM230.9 48.072L228.06 47.104L228.05 47.1331L228.041 47.1624L230.9 48.072ZM230.9 70.728L228.035 71.6192L228.047 71.6578L228.06 71.696L230.9 70.728ZM234.644 76.872L232.723 79.1767L232.746 79.1959L232.769 79.2146L234.644 76.872ZM240.116 91.344C234.855 91.344 230.289 90.0942 226.326 87.6598L223.185 92.7722C228.182 95.8418 233.856 97.344 240.116 97.344V91.344ZM226.342 87.6699C222.452 85.2454 219.322 81.7244 216.981 76.9837L211.602 79.6403C214.381 85.2676 218.227 89.6826 223.169 92.7621L226.342 87.6699ZM216.981 76.9837C214.675 72.313 213.452 66.4899 213.452 59.4H207.452C207.452 67.1581 208.788 73.943 211.602 79.6403L216.981 76.9837ZM213.452 59.4C213.452 52.3101 214.675 46.487 216.981 41.8163L211.602 39.1597C208.788 44.857 207.452 51.6419 207.452 59.4H213.452ZM216.981 41.8163C219.322 37.0756 222.452 33.5546 226.342 31.1301L223.169 26.0379C218.227 29.1174 214.381 33.5324 211.602 39.1597L216.981 41.8163ZM226.326 31.1402C230.289 28.7058 234.855 27.456 240.116 27.456V21.456C233.856 21.456 228.182 22.9582 223.185 26.0278L226.326 31.1402ZM240.116 27.456C245.306 27.456 249.802 28.7025 253.697 31.1301L256.87 26.0379C251.934 22.9614 246.317 21.456 240.116 21.456V27.456ZM253.713 31.1402C257.665 33.5674 260.818 37.0866 263.154 41.8163L268.533 39.1597C265.749 33.5214 261.863 29.1046 256.854 26.0278L253.713 31.1402ZM263.154 41.8163C265.46 46.487 266.684 52.3101 266.684 59.4H272.684C272.684 51.6419 271.347 44.857 268.533 39.1597L263.154 41.8163ZM266.684 59.4C266.684 66.4899 265.46 72.313 263.154 76.9837L268.533 79.6403C271.347 73.943 272.684 67.1581 272.684 59.4H266.684ZM263.154 76.9837C260.818 81.7134 257.665 85.2326 253.713 87.6598L256.854 92.7722C261.863 89.6954 265.749 85.2786 268.533 79.6403L263.154 76.9837ZM253.697 87.6699C249.802 90.0975 245.306 91.344 240.116 91.344V97.344C246.317 97.344 251.933 95.8385 256.87 92.7621L253.697 87.6699ZM240.116 81.792C242.847 81.792 245.323 80.9177 247.412 79.1767L243.571 74.5673C242.588 75.3863 241.48 75.792 240.116 75.792V81.792ZM247.366 79.2146C249.591 77.4346 251.094 74.7803 252.094 71.6376L246.377 69.8184C245.585 72.3077 244.592 73.7494 243.617 74.5294L247.366 79.2146ZM252.1 71.6192C253.121 68.3379 253.58 64.2276 253.58 59.4H247.58C247.58 63.9164 247.142 67.3581 246.371 69.8368L252.1 71.6192ZM253.58 59.4C253.58 54.5176 253.123 50.3951 252.094 47.1624L246.377 48.9816C247.14 51.3809 247.58 54.8104 247.58 59.4H253.58ZM252.094 47.1624C251.094 44.0197 249.591 41.3654 247.366 39.5854L243.617 44.2706C244.592 45.0506 245.585 46.4923 246.377 48.9816L252.094 47.1624ZM247.412 39.6233C245.323 37.8823 242.847 37.008 240.116 37.008V43.008C241.48 43.008 242.588 43.4137 243.571 44.2327L247.412 39.6233ZM240.116 37.008C237.386 37.008 234.901 37.8801 232.769 39.5854L236.518 44.2706C237.586 43.4159 238.749 43.008 240.116 43.008V37.008ZM232.723 39.6233C230.605 41.388 229.117 44.0039 228.06 47.104L233.739 49.04C234.602 46.508 235.61 45.028 236.564 44.2327L232.723 39.6233ZM228.041 47.1624C227.012 50.3951 226.556 54.5176 226.556 59.4H232.556C232.556 54.8104 232.995 51.3809 233.758 48.9816L228.041 47.1624ZM226.556 59.4C226.556 64.2276 227.014 68.3379 228.035 71.6192L233.764 69.8368C232.993 67.3581 232.556 63.9164 232.556 59.4H226.556ZM228.06 71.696C229.117 74.796 230.605 77.412 232.723 79.1767L236.564 74.5673C235.61 73.772 234.602 72.292 233.739 69.76L228.06 71.696ZM232.769 79.2146C234.901 80.9199 237.386 81.792 240.116 81.792V75.792C238.749 75.792 237.586 75.3841 236.518 74.5294L232.769 79.2146ZM290.474 90.216L288.888 92.7621L288.896 92.7672L288.904 92.7722L290.474 90.216ZM280.01 78.312L277.32 79.6403L277.32 79.6403L280.01 78.312ZM280.01 40.488L277.32 39.1597L277.32 39.1597L280.01 40.488ZM290.474 28.584L288.904 26.0278L288.896 26.0328L288.888 26.0379L290.474 28.584ZM321.002 28.584L319.416 31.1301L319.424 31.1352L319.432 31.1402L321.002 28.584ZM331.562 40.488L328.872 41.8163L328.872 41.8163L331.562 40.488ZM331.562 78.312L328.872 76.9837L328.872 76.9837L331.562 78.312ZM321.002 90.216L319.432 87.6598L319.424 87.6648L319.416 87.6699L321.002 90.216ZM311.21 76.872L309.336 74.5294L309.313 74.5481L309.29 74.5673L311.21 76.872ZM314.954 70.728L317.813 71.6376L317.816 71.6284L317.819 71.6192L314.954 70.728ZM311.21 41.928L309.29 44.2327L309.313 44.2519L309.336 44.2706L311.21 41.928ZM300.362 41.928L298.488 39.5854L298.465 39.6041L298.442 39.6233L300.362 41.928ZM296.618 48.072L293.779 47.104L293.769 47.1331L293.759 47.1624L296.618 48.072ZM296.618 70.728L293.754 71.6192L293.766 71.6578L293.779 71.696L296.618 70.728ZM300.362 76.872L298.442 79.1767L298.465 79.1959L298.488 79.2146L300.362 76.872ZM305.834 91.344C300.574 91.344 296.008 90.0942 292.045 87.6598L288.904 92.7722C293.901 95.8418 299.575 97.344 305.834 97.344V91.344ZM292.061 87.6699C288.17 85.2454 285.041 81.7244 282.7 76.9837L277.32 79.6403C280.099 85.2676 283.946 89.6826 288.888 92.7621L292.061 87.6699ZM282.7 76.9837C280.394 72.313 279.17 66.4899 279.17 59.4H273.17C273.17 67.1581 274.507 73.943 277.32 79.6403L282.7 76.9837ZM279.17 59.4C279.17 52.3101 280.394 46.487 282.7 41.8163L277.32 39.1597C274.507 44.857 273.17 51.6419 273.17 59.4H279.17ZM282.7 41.8163C285.041 37.0756 288.17 33.5546 292.061 31.1301L288.888 26.0379C283.946 29.1174 280.099 33.5324 277.32 39.1597L282.7 41.8163ZM292.045 31.1402C296.008 28.7058 300.574 27.456 305.834 27.456V21.456C299.575 21.456 293.901 22.9582 288.904 26.0278L292.045 31.1402ZM305.834 27.456C311.024 27.456 315.52 28.7025 319.416 31.1301L322.589 26.0379C317.652 22.9614 312.036 21.456 305.834 21.456V27.456ZM319.432 31.1402C323.383 33.5674 326.537 37.0866 328.872 41.8163L334.252 39.1597C331.468 33.5214 327.581 29.1046 322.573 26.0278L319.432 31.1402ZM328.872 41.8163C331.179 46.487 332.402 52.3101 332.402 59.4H338.402C338.402 51.6419 337.066 44.857 334.252 39.1597L328.872 41.8163ZM332.402 59.4C332.402 66.4899 331.179 72.313 328.872 76.9837L334.252 79.6403C337.066 73.943 338.402 67.1581 338.402 59.4H332.402ZM328.872 76.9837C326.537 81.7134 323.383 85.2326 319.432 87.6598L322.573 92.7722C327.581 89.6954 331.468 85.2786 334.252 79.6403L328.872 76.9837ZM319.416 87.6699C315.52 90.0975 311.024 91.344 305.834 91.344V97.344C312.036 97.344 317.652 95.8385 322.589 92.7621L319.416 87.6699ZM305.834 81.792C308.565 81.792 311.042 80.9177 313.131 79.1767L309.29 74.5673C308.307 75.3863 307.199 75.792 305.834 75.792V81.792ZM313.084 79.2146C315.309 77.4346 316.813 74.7803 317.813 71.6376L312.095 69.8184C311.303 72.3077 310.311 73.7494 309.336 74.5294L313.084 79.2146ZM317.819 71.6192C318.84 68.3379 319.298 64.2276 319.298 59.4H313.298C313.298 63.9164 312.861 67.3581 312.09 69.8368L317.819 71.6192ZM319.298 59.4C319.298 54.5176 318.842 50.3951 317.813 47.1624L312.095 48.9816C312.859 51.3809 313.298 54.8104 313.298 59.4H319.298ZM317.813 47.1624C316.813 44.0197 315.309 41.3654 313.084 39.5854L309.336 44.2706C310.311 45.0506 311.303 46.4923 312.095 48.9816L317.813 47.1624ZM313.131 39.6233C311.042 37.8823 308.565 37.008 305.834 37.008V43.008C307.199 43.008 308.307 43.4137 309.29 44.2327L313.131 39.6233ZM305.834 37.008C303.105 37.008 300.62 37.8801 298.488 39.5854L302.236 44.2706C303.305 43.4159 304.468 43.008 305.834 43.008V37.008ZM298.442 39.6233C296.324 41.388 294.836 44.0039 293.779 47.104L299.458 49.04C300.321 46.508 301.328 45.028 302.283 44.2327L298.442 39.6233ZM293.759 47.1624C292.731 50.3951 292.274 54.5176 292.274 59.4H298.274C298.274 54.8104 298.714 51.3809 299.477 48.9816L293.759 47.1624ZM292.274 59.4C292.274 64.2276 292.733 68.3379 293.754 71.6192L299.483 69.8368C298.712 67.3581 298.274 63.9164 298.274 59.4H292.274ZM293.779 71.696C294.836 74.796 296.324 77.412 298.442 79.1767L302.283 74.5673C301.328 73.772 300.321 72.292 299.458 69.76L293.779 71.696ZM298.488 79.2146C300.62 80.9199 303.105 81.792 305.834 81.792V75.792C304.468 75.792 303.305 75.3841 302.236 74.5294L298.488 79.2146ZM341.505 70.728H338.505V73.728H341.505V70.728ZM341.505 61.32V58.32H338.505V61.32H341.505ZM393.345 61.32H396.345V58.32H393.345V61.32ZM393.345 70.728V73.728H396.345V70.728H393.345ZM341.505 57.48H338.505V60.48H341.505V57.48ZM341.505 48.072V45.072H338.505V48.072H341.505ZM393.345 48.072H396.345V45.072H393.345V48.072ZM393.345 57.48V60.48H396.345V57.48H393.345ZM372.609 91.848L371.529 94.647L371.553 94.6562L371.577 94.6651L372.609 91.848ZM360.897 84.552L358.819 86.7153L358.829 86.7254L358.84 86.7354L360.897 84.552ZM353.217 73.512L350.464 74.7037L350.467 74.7113L350.47 74.7188L353.217 73.512ZM353.217 45.384L355.964 46.5908L355.967 46.5833L355.97 46.5757L353.217 45.384ZM360.897 34.248L358.84 32.0646L358.829 32.0746L358.819 32.0847L360.897 34.248ZM372.609 27.048L373.654 29.8603L373.664 29.8562L373.675 29.8521L372.609 27.048ZM404.001 27.72L402.776 30.4585L402.783 30.4614L402.789 30.4644L404.001 27.72ZM416.289 37.128L418.302 39.3526L420.391 37.4621L418.635 35.2584L416.289 37.128ZM404.193 48.072L401.879 49.9811L403.877 52.4034L406.206 50.2966L404.193 48.072ZM397.089 42.216L398.457 39.5459L398.457 39.5459L397.089 42.216ZM380.769 41.544L379.682 38.748L379.668 38.7532L379.655 38.7586L380.769 41.544ZM374.913 45.48L377.034 47.6013L377.054 47.5813L377.074 47.5609L374.913 45.48ZM370.977 51.528L368.197 50.4009L368.184 50.4335L368.171 50.4663L370.977 51.528ZM370.977 67.272L368.171 68.3337L368.184 68.3665L368.197 68.3991L370.977 67.272ZM374.913 73.416L372.752 75.4969L372.772 75.5173L372.792 75.5373L374.913 73.416ZM380.769 77.256L379.655 80.0414L379.668 80.0468L379.682 80.052L380.769 77.256ZM404.193 70.728L406.206 68.5034L403.877 66.3966L401.879 68.8189L404.193 70.728ZM416.289 81.672L418.621 83.5596L420.407 81.3525L418.302 79.4474L416.289 81.672ZM404.001 91.08L405.226 93.8185L405.234 93.8148L405.242 93.8111L404.001 91.08ZM344.505 70.728V61.32H338.505V70.728H344.505ZM341.505 64.32H393.345V58.32H341.505V64.32ZM390.345 61.32V70.728H396.345V61.32H390.345ZM393.345 67.728H341.505V73.728H393.345V67.728ZM344.505 57.48V48.072H338.505V57.48H344.505ZM341.505 51.072H393.345V45.072H341.505V51.072ZM390.345 48.072V57.48H396.345V48.072H390.345ZM393.345 54.48H341.505V60.48H393.345V54.48ZM387.393 91.344C382.399 91.344 377.823 90.5627 373.641 89.0309L371.577 94.6651C376.483 96.4613 381.763 97.344 387.393 97.344V91.344ZM373.689 89.049C369.553 87.4538 365.985 85.2248 362.954 82.3686L358.84 86.7354C362.465 90.1512 366.705 92.7862 371.529 94.647L373.689 89.049ZM362.975 82.3887C360 79.5301 357.665 76.1768 355.964 72.3052L350.47 74.7188C352.481 79.2952 355.266 83.3019 358.819 86.7153L362.975 82.3887ZM355.97 72.3203C354.292 68.4432 353.433 64.1496 353.433 59.4H347.433C347.433 64.8904 348.43 70.0048 350.464 74.7037L355.97 72.3203ZM353.433 59.4C353.433 54.6497 354.292 50.3946 355.964 46.5908L350.47 44.1772C348.43 48.8214 347.433 53.9103 347.433 59.4H353.433ZM355.97 46.5757C357.673 42.6411 360.008 39.2625 362.975 36.4113L358.819 32.0847C355.258 35.5055 352.473 39.5509 350.464 44.1923L355.97 46.5757ZM362.954 36.4314C365.977 33.583 369.533 31.3909 373.654 29.8603L371.564 24.2357C366.725 26.0331 362.473 28.641 358.84 32.0646L362.954 36.4314ZM373.675 29.8521C377.849 28.2651 382.412 27.456 387.393 27.456V21.456C381.75 21.456 376.457 22.3749 371.543 24.2439L373.675 29.8521ZM387.393 27.456C393.248 27.456 398.356 28.481 402.776 30.4585L405.226 24.9815C399.918 22.607 393.954 21.456 387.393 21.456V27.456ZM402.789 30.4644C407.287 32.4505 410.99 35.2916 413.943 38.9976L418.635 35.2584C415.06 30.7724 410.571 27.3415 405.213 24.9756L402.789 30.4644ZM414.276 34.9034L402.18 45.8474L406.206 50.2966L418.302 39.3526L414.276 34.9034ZM406.507 46.1628C404.168 43.327 401.488 41.0984 398.457 39.5459L395.721 44.8861C397.938 46.0216 399.994 47.697 401.879 49.9811L406.507 46.1628ZM398.457 39.5459C395.374 37.9669 391.987 37.2 388.353 37.2V43.2C391.119 43.2 393.556 43.7771 395.721 44.8861L398.457 39.5459ZM388.353 37.2C385.271 37.2 382.369 37.7027 379.682 38.748L381.856 44.34C383.777 43.5933 385.931 43.2 388.353 43.2V37.2ZM379.655 38.7586C377.022 39.8116 374.713 41.3629 372.752 43.3991L377.074 47.5609C378.441 46.1411 380.036 45.0684 381.883 44.3294L379.655 38.7586ZM372.792 43.3587C370.82 45.3302 369.295 47.6929 368.197 50.4009L373.757 52.6551C374.579 50.6271 375.678 48.9578 377.034 47.6013L372.792 43.3587ZM368.171 50.4663C367.13 53.2169 366.633 56.2067 366.633 59.4H372.633C372.633 56.8333 373.032 54.5751 373.783 52.5897L368.171 50.4663ZM366.633 59.4C366.633 62.5933 367.13 65.5831 368.171 68.3337L373.783 66.2103C373.032 64.2249 372.633 61.9667 372.633 59.4H366.633ZM368.197 68.3991C369.291 71.0983 370.806 73.4758 372.752 75.4969L377.074 71.3351C375.692 69.9002 374.583 68.1817 373.757 66.1449L368.197 68.3991ZM372.792 75.5373C374.75 77.4959 377.047 78.9984 379.655 80.0414L381.883 74.4706C380.011 73.7216 378.404 72.6641 377.034 71.2947L372.792 75.5373ZM379.682 80.052C382.369 81.0973 385.271 81.6 388.353 81.6V75.6C385.931 75.6 383.777 75.2067 381.856 74.46L379.682 80.052ZM388.353 81.6C391.987 81.6 395.374 80.8331 398.457 79.2541L395.721 73.9139C393.556 75.0229 391.119 75.6 388.353 75.6V81.6ZM398.457 79.2541C401.488 77.7016 404.168 75.473 406.507 72.6371L401.879 68.8189C399.994 71.103 397.938 72.7784 395.721 73.9139L398.457 79.2541ZM402.18 72.9526L414.276 83.8966L418.302 79.4474L406.206 68.5034L402.18 72.9526ZM413.957 79.7844C410.999 83.4385 407.283 86.293 402.76 88.3489L405.242 93.8111C410.575 91.387 415.051 87.9695 418.621 83.5596L413.957 79.7844ZM402.776 88.3415C398.356 90.319 393.248 91.344 387.393 91.344V97.344C393.954 97.344 399.918 96.193 405.226 93.8185L402.776 88.3415Z" fill="#E24E56" mask="url(#path-1-outside-1_14_34)"/>
<rect y="55" width="38" height="38" fill="white"/>
<path d="M9.952 170.32C8.20267 170.32 6.528 170.075 4.928 169.584C3.328 169.072 2.05867 168.421 1.12 167.632L2.56 164.4C3.456 165.104 4.56533 165.691 5.888 166.16C7.21067 166.629 8.56533 166.864 9.952 166.864C11.1253 166.864 12.0747 166.736 12.8 166.48C13.5253 166.224 14.0587 165.883 14.4 165.456C14.7413 165.008 14.912 164.507 14.912 163.952C14.912 163.269 14.6667 162.725 14.176 162.32C13.6853 161.893 13.0453 161.563 12.256 161.328C11.488 161.072 10.624 160.837 9.664 160.624C8.72533 160.411 7.776 160.165 6.816 159.888C5.87733 159.589 5.01333 159.216 4.224 158.768C3.456 158.299 2.82667 157.68 2.336 156.912C1.84533 156.144 1.6 155.163 1.6 153.968C1.6 152.752 1.92 151.643 2.56 150.64C3.22133 149.616 4.21333 148.805 5.536 148.208C6.88 147.589 8.576 147.28 10.624 147.28C11.968 147.28 13.3013 147.451 14.624 147.792C15.9467 148.133 17.0987 148.624 18.08 149.264L16.768 152.496C15.7653 151.899 14.7307 151.461 13.664 151.184C12.5973 150.885 11.5733 150.736 10.592 150.736C9.44 150.736 8.50133 150.875 7.776 151.152C7.072 151.429 6.54933 151.792 6.208 152.24C5.888 152.688 5.728 153.2 5.728 153.776C5.728 154.459 5.96267 155.013 6.432 155.44C6.92267 155.845 7.552 156.165 8.32 156.4C9.10933 156.635 9.984 156.869 10.944 157.104C11.904 157.317 12.8533 157.563 13.792 157.84C14.752 158.117 15.616 158.48 16.384 158.928C17.1733 159.376 17.8027 159.984 18.272 160.752C18.7627 161.52 19.008 162.491 19.008 163.664C19.008 164.859 18.6773 165.968 18.016 166.992C17.376 167.995 16.384 168.805 15.04 169.424C13.696 170.021 12 170.32 9.952 170.32ZM19.965 170L30.045 147.6H34.141L44.253 170H39.901L31.229 149.808H32.893L24.253 170H19.965ZM24.605 164.816L25.725 161.552H37.821L38.941 164.816H24.605ZM47.1018 170V147.6H51.2618V166.48H62.9738V170H47.1018ZM63.1212 170L73.2013 147.6H77.2973L87.4093 170H83.0573L74.3853 149.808H76.0493L67.4093 170H63.1212ZM67.7613 164.816L68.8813 161.552H80.9773L82.0972 164.816H67.7613ZM90.258 170V147.6H94.418V170H90.258ZM100.477 170V147.6H109.693C111.677 147.6 113.373 147.92 114.781 148.56C116.21 149.2 117.309 150.117 118.077 151.312C118.845 152.507 119.229 153.925 119.229 155.568C119.229 157.211 118.845 158.629 118.077 159.824C117.309 160.997 116.21 161.904 114.781 162.544C113.373 163.163 111.677 163.472 109.693 163.472H102.781L104.637 161.584V170H100.477ZM115.133 170L109.469 161.872H113.917L119.613 170H115.133ZM104.637 162.032L102.781 160.048H109.501C111.335 160.048 112.711 159.653 113.629 158.864C114.567 158.075 115.037 156.976 115.037 155.568C115.037 154.139 114.567 153.04 113.629 152.272C112.711 151.504 111.335 151.12 109.501 151.12H102.781L104.637 149.072V162.032ZM127.723 156.912H138.859V160.336H127.723V156.912ZM128.043 166.512H140.683V170H123.883V147.6H140.235V151.088H128.043V166.512ZM154.164 170V147.6H157.588L167.38 163.952H165.588L175.22 147.6H178.644L178.676 170H174.74L174.708 153.776H175.54L167.348 167.44H165.492L157.172 153.776H158.132V170H154.164ZM195.223 170.32C193.473 170.32 191.863 170.032 190.391 169.456C188.919 168.88 187.639 168.08 186.551 167.056C185.463 166.011 184.62 164.795 184.023 163.408C183.425 162 183.127 160.464 183.127 158.8C183.127 157.136 183.425 155.611 184.023 154.224C184.62 152.816 185.463 151.6 186.551 150.576C187.639 149.531 188.919 148.72 190.391 148.144C191.863 147.568 193.463 147.28 195.191 147.28C196.94 147.28 198.54 147.568 199.991 148.144C201.463 148.72 202.743 149.531 203.831 150.576C204.919 151.6 205.761 152.816 206.359 154.224C206.956 155.611 207.255 157.136 207.255 158.8C207.255 160.464 206.956 162 206.359 163.408C205.761 164.816 204.919 166.032 203.831 167.056C202.743 168.08 201.463 168.88 199.991 169.456C198.54 170.032 196.951 170.32 195.223 170.32ZM195.191 166.672C196.321 166.672 197.367 166.48 198.327 166.096C199.287 165.712 200.119 165.168 200.823 164.464C201.527 163.739 202.071 162.907 202.455 161.968C202.86 161.008 203.063 159.952 203.063 158.8C203.063 157.648 202.86 156.603 202.455 155.664C202.071 154.704 201.527 153.872 200.823 153.168C200.119 152.443 199.287 151.888 198.327 151.504C197.367 151.12 196.321 150.928 195.191 150.928C194.06 150.928 193.015 151.12 192.055 151.504C191.116 151.888 190.284 152.443 189.559 153.168C188.855 153.872 188.3 154.704 187.895 155.664C187.511 156.603 187.319 157.648 187.319 158.8C187.319 159.931 187.511 160.976 187.895 161.936C188.3 162.896 188.855 163.739 189.559 164.464C190.263 165.168 191.095 165.712 192.055 166.096C193.015 166.48 194.06 166.672 195.191 166.672ZM216.2 170V161.136L217.128 163.696L207.399 147.6H211.848L219.656 160.56H217.16L225.032 147.6H229.128L219.4 163.696L220.36 161.136V170H216.2ZM235.411 156.912H246.547V160.336H235.411V156.912ZM235.731 166.512H248.371V170H231.571V147.6H247.923V151.088H235.731V166.512ZM253.008 170V147.6H256.432L270.48 164.848H268.784V147.6H272.912V170H269.488L255.44 152.752H257.136V170H253.008ZM287.758 170V147.6H297.55C299.982 147.6 302.115 148.069 303.95 149.008C305.785 149.947 307.214 151.248 308.238 152.912C309.262 154.576 309.774 156.539 309.774 158.8C309.774 161.04 309.262 163.003 308.238 164.688C307.214 166.352 305.785 167.653 303.95 168.592C302.115 169.531 299.982 170 297.55 170H287.758ZM291.918 166.48H297.358C299.043 166.48 300.494 166.16 301.71 165.52C302.947 164.88 303.897 163.984 304.558 162.832C305.241 161.68 305.582 160.336 305.582 158.8C305.582 157.243 305.241 155.899 304.558 154.768C303.897 153.616 302.947 152.72 301.71 152.08C300.494 151.44 299.043 151.12 297.358 151.12H291.918V166.48ZM318.036 156.912H329.172V160.336H318.036V156.912ZM318.356 166.512H330.996V170H314.196V147.6H330.548V151.088H318.356V166.512ZM319.732 145.776L324.052 141.392H328.756L323.188 145.776H319.732ZM335.633 170V147.6H346.129C348.817 147.6 350.865 148.133 352.273 149.2C353.681 150.245 354.385 151.653 354.385 153.424C354.385 154.619 354.108 155.643 353.553 156.496C352.998 157.328 352.252 157.979 351.313 158.448C350.396 158.896 349.393 159.12 348.305 159.12L348.881 157.968C350.14 157.968 351.27 158.203 352.273 158.672C353.276 159.12 354.065 159.781 354.641 160.656C355.238 161.531 355.537 162.619 355.537 163.92C355.537 165.84 354.801 167.333 353.329 168.4C351.857 169.467 349.67 170 346.769 170H335.633ZM339.793 166.736H346.513C348.07 166.736 349.265 166.48 350.097 165.968C350.929 165.456 351.345 164.635 351.345 163.504C351.345 162.395 350.929 161.584 350.097 161.072C349.265 160.539 348.07 160.272 346.513 160.272H339.473V157.04H345.681C347.132 157.04 348.241 156.784 349.009 156.272C349.798 155.76 350.193 154.992 350.193 153.968C350.193 152.923 349.798 152.144 349.009 151.632C348.241 151.12 347.132 150.864 345.681 150.864H339.793V166.736ZM369.609 170.32C366.537 170.32 364.126 169.456 362.377 167.728C360.649 166 359.785 163.504 359.785 160.24V147.6H363.945V160.08C363.945 162.384 364.435 164.059 365.417 165.104C366.419 166.149 367.827 166.672 369.641 166.672C371.454 166.672 372.851 166.149 373.833 165.104C374.814 164.059 375.305 162.384 375.305 160.08V147.6H379.401V160.24C379.401 163.504 378.526 166 376.777 167.728C375.049 169.456 372.659 170.32 369.609 170.32ZM389.365 170V151.12H381.941V147.6H400.949V151.12H393.525V170H389.365ZM399.777 170L409.858 147.6H413.954L424.066 170H419.714L411.042 149.808H412.706L404.066 170H399.777ZM404.418 164.816L405.538 161.552H417.634L418.753 164.816H404.418ZM426.914 170V147.6H430.338L444.386 164.848H442.69V147.6H446.818V170H443.394L429.346 152.752H431.042V170H426.914ZM457.365 170V151.12H449.941V147.6H468.949V151.12H461.525V170H457.365Z" fill="white"/>
<path d="M78.88 101V89.096L104.032 65.576C105.824 63.912 107.136 62.44 107.968 61.16C108.864 59.88 109.44 58.728 109.696 57.704C110.016 56.616 110.176 55.624 110.176 54.728C110.176 52.552 109.44 50.856 107.968 49.64C106.56 48.424 104.416 47.816 101.536 47.816C99.104 47.816 96.832 48.36 94.72 49.448C92.608 50.536 90.88 52.168 89.536 54.344L75.424 46.472C77.92 42.248 81.536 38.856 86.272 36.296C91.008 33.736 96.672 32.456 103.264 32.456C108.448 32.456 112.992 33.288 116.896 34.952C120.8 36.616 123.84 38.984 126.016 42.056C128.256 45.128 129.376 48.744 129.376 52.904C129.376 55.08 129.088 57.256 128.512 59.432C127.936 61.544 126.816 63.816 125.152 66.248C123.552 68.616 121.152 71.272 117.952 74.216L97.984 92.648L94.816 85.928H131.2V101H78.88ZM166.397 102.344C160.637 102.344 155.517 100.968 151.037 98.216C146.621 95.464 143.133 91.496 140.573 86.312C138.013 81.128 136.733 74.824 136.733 67.4C136.733 59.976 138.013 53.672 140.573 48.488C143.133 43.304 146.621 39.336 151.037 36.584C155.517 33.832 160.637 32.456 166.397 32.456C172.093 32.456 177.149 33.832 181.565 36.584C186.045 39.336 189.565 43.304 192.125 48.488C194.685 53.672 195.965 59.976 195.965 67.4C195.965 74.824 194.685 81.128 192.125 86.312C189.565 91.496 186.045 95.464 181.565 98.216C177.149 100.968 172.093 102.344 166.397 102.344ZM166.397 86.792C168.445 86.792 170.237 86.152 171.773 84.872C173.373 83.592 174.621 81.544 175.517 78.728C176.413 75.848 176.861 72.072 176.861 67.4C176.861 62.664 176.413 58.888 175.517 56.072C174.621 53.256 173.373 51.208 171.773 49.928C170.237 48.648 168.445 48.008 166.397 48.008C164.349 48.008 162.525 48.648 160.925 49.928C159.389 51.208 158.141 53.256 157.181 56.072C156.285 58.888 155.837 62.664 155.837 67.4C155.837 72.072 156.285 75.848 157.181 78.728C158.141 81.544 159.389 83.592 160.925 84.872C162.525 86.152 164.349 86.792 166.397 86.792ZM232.116 102.344C226.356 102.344 221.236 100.968 216.756 98.216C212.34 95.464 208.852 91.496 206.292 86.312C203.732 81.128 202.452 74.824 202.452 67.4C202.452 59.976 203.732 53.672 206.292 48.488C208.852 43.304 212.34 39.336 216.756 36.584C221.236 33.832 226.356 32.456 232.116 32.456C237.812 32.456 242.868 33.832 247.284 36.584C251.764 39.336 255.284 43.304 257.844 48.488C260.404 53.672 261.684 59.976 261.684 67.4C261.684 74.824 260.404 81.128 257.844 86.312C255.284 91.496 251.764 95.464 247.284 98.216C242.868 100.968 237.812 102.344 232.116 102.344ZM232.116 86.792C234.164 86.792 235.956 86.152 237.492 84.872C239.092 83.592 240.34 81.544 241.236 78.728C242.132 75.848 242.58 72.072 242.58 67.4C242.58 62.664 242.132 58.888 241.236 56.072C240.34 53.256 239.092 51.208 237.492 49.928C235.956 48.648 234.164 48.008 232.116 48.008C230.068 48.008 228.244 48.648 226.644 49.928C225.108 51.208 223.86 53.256 222.9 56.072C222.004 58.888 221.556 62.664 221.556 67.4C221.556 72.072 222.004 75.848 222.9 78.728C223.86 81.544 225.108 83.592 226.644 84.872C228.244 86.152 230.068 86.792 232.116 86.792ZM297.834 102.344C292.074 102.344 286.954 100.968 282.474 98.216C278.058 95.464 274.57 91.496 272.01 86.312C269.45 81.128 268.17 74.824 268.17 67.4C268.17 59.976 269.45 53.672 272.01 48.488C274.57 43.304 278.058 39.336 282.474 36.584C286.954 33.832 292.074 32.456 297.834 32.456C303.53 32.456 308.586 33.832 313.002 36.584C317.482 39.336 321.002 43.304 323.562 48.488C326.122 53.672 327.402 59.976 327.402 67.4C327.402 74.824 326.122 81.128 323.562 86.312C321.002 91.496 317.482 95.464 313.002 98.216C308.586 100.968 303.53 102.344 297.834 102.344ZM297.834 86.792C299.882 86.792 301.674 86.152 303.21 84.872C304.81 83.592 306.058 81.544 306.954 78.728C307.85 75.848 308.298 72.072 308.298 67.4C308.298 62.664 307.85 58.888 306.954 56.072C306.058 53.256 304.81 51.208 303.21 49.928C301.674 48.648 299.882 48.008 297.834 48.008C295.786 48.008 293.962 48.648 292.362 49.928C290.826 51.208 289.578 53.256 288.618 56.072C287.722 58.888 287.274 62.664 287.274 67.4C287.274 72.072 287.722 75.848 288.618 78.728C289.578 81.544 290.826 83.592 292.362 84.872C293.962 86.152 295.786 86.792 297.834 86.792ZM333.505 78.728V69.32H385.345V78.728H333.505ZM333.505 65.48V56.072H385.345V65.48H333.505ZM379.393 102.344C374.081 102.344 369.153 101.512 364.609 99.848C360.129 98.12 356.225 95.688 352.897 92.552C349.633 89.416 347.073 85.736 345.217 81.512C343.361 77.224 342.433 72.52 342.433 67.4C342.433 62.28 343.361 57.608 345.217 53.384C347.073 49.096 349.633 45.384 352.897 42.248C356.225 39.112 360.129 36.712 364.609 35.048C369.153 33.32 374.081 32.456 379.393 32.456C385.601 32.456 391.137 33.544 396.001 35.72C400.929 37.896 405.025 41.032 408.289 45.128L396.193 56.072C394.081 53.512 391.713 51.56 389.089 50.216C386.465 48.872 383.553 48.2 380.353 48.2C377.601 48.2 375.073 48.648 372.769 49.544C370.529 50.44 368.577 51.752 366.913 53.48C365.249 55.144 363.937 57.16 362.977 59.528C362.081 61.896 361.633 64.52 361.633 67.4C361.633 70.28 362.081 72.904 362.977 75.272C363.937 77.64 365.249 79.688 366.913 81.416C368.577 83.08 370.529 84.36 372.769 85.256C375.073 86.152 377.601 86.6 380.353 86.6C383.553 86.6 386.465 85.928 389.089 84.584C391.713 83.24 394.081 81.288 396.193 78.728L408.289 89.672C405.025 93.704 400.929 96.84 396.001 99.08C391.137 101.256 385.601 102.344 379.393 102.344Z" fill="white"/>
</g>
<defs>
<clipPath id="clip0_14_34">
<rect width="472" height="170" fill="white"/>
</clipPath>
</defs>
</svg>
